<svg width="32" height="25" viewBox="0 0 32 25" fill="none" xmlns="http://www.w3.org/2000/svg">
<mask id="mask0_19_126" style="mask-type:luminance" maskUnits="userSpaceOnUse" x="0" y="0" width="32" height="25">
<rect y="0.900391" width="32" height="24" fill="white"/>
</mask>
<g mask="url(#mask0_19_126)">
<path fill-rule="evenodd" clip-rule="evenodd" d="M0 0.900391V24.9004H32V0.900391H0Z" fill="#2E42A5"/>
<mask id="mask1_19_126" style="mask-type:luminance" maskUnits="userSpaceOnUse" x="0" y="0" width="32" height="25">
<path fill-rule="evenodd" clip-rule="evenodd" d="M0 0.900391V24.9004H32V0.900391H0Z" fill="white"/>
</mask>
<g mask="url(#mask1_19_126)">
<mask id="mask2_19_126" style="mask-type:luminance" maskUnits="userSpaceOnUse" x="0" y="0" width="32" height="25">
<rect y="0.900391" width="32" height="24" fill="white"/>
</mask>
<g mask="url(#mask2_19_126)">
<path d="M-3.56311 23.1855L3.47858 26.1636L32.1598 4.13795L35.8741 -0.287527L28.3441 -1.28288L16.6457 8.20859L7.22968 14.6036L-3.56311 23.1855Z" fill="white"/>
<path d="M-2.59912 25.2723L0.988295 27.0005L34.5403 -0.698452H29.5032L-2.59912 25.2723Z" fill="#F50100"/>
<path d="M35.5632 23.1855L28.5215 26.1636L-0.159756 4.13795L-3.87408 -0.287527L3.65599 -1.28288L15.3544 8.20859L24.7704 14.6036L35.5632 23.1855Z" fill="white"/>
<path d="M35.3229 24.6829L31.7355 26.4111L17.4487 14.5518L13.2129 13.2268L-4.23151 -0.272438H0.805637L18.2403 12.9063L22.8713 14.4952L35.3229 24.6829Z" fill="#F50100"/>
<mask id="path-9-inside-1_19_126" fill="white">
<path fill-rule="evenodd" clip-rule="evenodd" d="M19.7778 -1.09961H12.2222V8.90039H-1.97247V16.9004H12.2222V26.9004H19.7778V16.9004H34.0275V8.90039H19.7778V-1.09961Z"/>
</mask>
<path fill-rule="evenodd" clip-rule="evenodd" d="M19.7778 -1.09961H12.2222V8.90039H-1.97247V16.9004H12.2222V26.9004H19.7778V16.9004H34.0275V8.90039H19.7778V-1.09961Z" fill="#F50100"/>
<path d="M12.2222 -1.09961V-3.09961H10.2222V-1.09961H12.2222ZM19.7778 -1.09961H21.7778V-3.09961H19.7778V-1.09961ZM12.2222 8.90039V10.9004H14.2222V8.90039H12.2222ZM-1.97247 8.90039V6.90039H-3.97247V8.90039H-1.97247ZM-1.97247 16.9004H-3.97247V18.9004H-1.97247V16.9004ZM12.2222 16.9004H14.2222V14.9004H12.2222V16.9004ZM12.2222 26.9004H10.2222V28.9004H12.2222V26.9004ZM19.7778 26.9004V28.9004H21.7778V26.9004H19.7778ZM19.7778 16.9004V14.9004H17.7778V16.9004H19.7778ZM34.0275 16.9004V18.9004H36.0275V16.9004H34.0275ZM34.0275 8.90039H36.0275V6.90039H34.0275V8.90039ZM19.7778 8.90039H17.7778V10.9004H19.7778V8.90039ZM12.2222 0.900391H19.7778V-3.09961H12.2222V0.900391ZM14.2222 8.90039V-1.09961H10.2222V8.90039H14.2222ZM-1.97247 10.9004H12.2222V6.90039H-1.97247V10.9004ZM0.0275269 16.9004V8.90039H-3.97247V16.9004H0.0275269ZM12.2222 14.9004H-1.97247V18.9004H12.2222V14.9004ZM14.2222 26.9004V16.9004H10.2222V26.9004H14.2222ZM19.7778 24.9004H12.2222V28.9004H19.7778V24.9004ZM17.7778 16.9004V26.9004H21.7778V16.9004H17.7778ZM34.0275 14.9004H19.7778V18.9004H34.0275V14.9004ZM32.0275 8.90039V16.9004H36.0275V8.90039H32.0275ZM19.7778 10.9004H34.0275V6.90039H19.7778V10.9004ZM17.7778 -1.09961V8.90039H21.7778V-1.09961H17.7778Z" fill="white" mask="url(#path-9-inside-1_19_126)"/>
</g>
</g>
</g>
</svg>
