<svg width="1319" height="100" viewBox="0 0 1319 100" fill="none" xmlns="http://www.w3.org/2000/svg">
<path d="M1264 0H1270C1283.81 0 1295 11.1929 1295 25V100H1264V0Z" fill="#D6A164"/>
<path d="M1295 29H1301C1309.28 29 1316 35.7157 1316 44V46C1316 54.2843 1309.28 61 1301 61H1295" stroke="#978E8E" stroke-width="5"/>
<path d="M0 12.9831V100H1264V12.9831L948 9C700.176 49.4318 561.886 46.0994 316 9L0 12.9831Z" fill="#B18F66"/>
<path d="M1262 62.9448V70.4049V78.0552C1262 79.7121 1260.66 81.0552 1259 81.0552H1252.88C1250.97 81.0552 1249.42 82.6049 1249.42 84.5166C1249.42 85.3358 1248.76 86 1247.94 86H3V55H1247.77C1248.68 55 1249.42 55.738 1249.42 56.6483C1249.42 58.4689 1250.9 59.9448 1252.72 59.9448H1259C1260.66 59.9448 1262 61.2879 1262 62.9448Z" stroke="#D2D1D1" stroke-width="6"/>
<path d="M1142.14 65.2588H1138.64V69.1266L1136.33 67.2688L1135.93 67.5734L1138.22 69.8879H1133.97V73.0705H1138.22L1135.93 75.3546L1136.33 75.7505L1138.64 73.7862V77.6235H1142.14V73.5578L1144.51 75.7505L1144.91 75.3546L1142.56 73.0705H1146.83V69.8879H1142.8L1144.91 67.68L1144.51 67.2688L1142.14 69.1266V65.2588Z" stroke="#D6A164"/>
<ellipse cx="1140.33" cy="71.5172" rx="10.0006" ry="9.51717" fill="#D6A164" fill-opacity="0.5"/>
<path d="M1139.73 69.8575H1141.07M1139.73 69.8575V70.8169H1138.69M1139.73 69.8575L1138.69 65.335M1141.07 69.8575V70.8169H1142.08M1141.07 69.8575L1142.08 65.335M1142.08 70.8169V72.0807M1142.08 70.8169L1146.86 69.8575M1142.08 72.0807H1141.07V73.0401M1142.08 72.0807L1146.86 73.0401M1141.07 73.0401H1139.47M1141.07 73.0401L1142.08 77.6692M1139.47 73.0401V72.0807H1138.69M1139.47 73.0401L1138.69 77.6692M1138.69 72.0807V70.8169M1138.69 72.0807L1133.97 73.0401M1138.69 70.8169L1133.97 69.8575" stroke="#D6A164"/>
<path d="M1109.25 77.7115L1107.09 80H1103.38L1101.22 77.7115V65.9423L1103.38 63H1107.09L1109.25 65.9423V77.7115Z" stroke="#D2D1D1" stroke-width="2"/>
<path d="M1092.18 75.6538L1089.21 77H1084.11L1081.14 75.6538V68.7308L1084.11 67H1089.21L1092.18 68.7308V75.6538Z" stroke="#D2D1D1" stroke-width="2"/>
</svg>
