<svg width="712" height="344" viewBox="0 0 712 344" fill="none" xmlns="http://www.w3.org/2000/svg">
<path d="M747.208 263.064L761 311.887L755.208 316.852H747.208H740.588L737.278 321.541L724.314 331.747L718.245 338.919L706.384 343.608L702.523 338.919L696.454 331.747L693.144 305.819L686.8 300.853H682.662L673.836 304.163L660.595 305.819L650.941 311.887H638.804L631.081 316.852L619.496 321.541L605.704 319.335L598.532 311.059H575.362H559.639L546.951 305.819L528.47 311.059H510.54L495.645 313.818L487.921 316.852L475.509 305.819L461.717 300.853L448.477 295.337L433.582 293.406L418.135 289.82H409.584L395.792 284.855L389.999 288.165L379.518 293.406L370.967 295.337L368.76 289.82L363.519 284.855H353.313V280.993H361.312V274.925L366.277 277.959L370.967 284.855H380.621L376.483 280.993L370.967 274.925L368.76 268.856L366.277 265.27V258.099L361.312 249.824V237.411V232.998L357.726 225.55L341.452 218.93L344.486 209.827H353.313V205.966L357.726 195.208L366.277 181.968V170.383L357.726 162.383L353.313 157.694L337.59 155.212L326.557 157.694H306.697L291.801 159.625H283.802L277.734 155.212L268.355 152.177L257.322 155.212L234.427 159.625H219.532L212.912 162.383L207.119 166.245L205.74 162.383H200.224V166.245H196.638V162.383H188.638L174.847 173.968L167.951 185.554H162.71L165.744 179.485L157.469 181.968L151.952 195.208L145.332 191.346L151.952 177.003L165.744 173.968L170.157 166.245L196.638 155.212V145.557L191.397 143.351L178.157 145.557L170.157 152.177L157.469 159.625H151.952L145.332 155.212H135.678L122.989 162.383L112.783 170.383V159.625L120.782 149.971L135.678 145.557L151.952 149.971L170.157 143.351L178.157 136.179H194.707L191.397 130.11L180.363 125.973V121.284L188.638 118.249V125.973L196.638 128.18H205.74L227.531 125.973V133.145H219.532L207.119 140.04L210.705 149.971H223.394L241.599 145.557L248.495 143.351V133.145H241.599L234.427 130.11V125.973L241.599 121.284V112.733V104.458L234.427 93.9757L232.496 81.0114L244.082 78.8047V90.3898L250.702 98.6649V104.458V118.249V125.973L260.908 130.11V143.351L271.114 140.04L279.94 143.351L288.767 145.557L295.663 143.351H305.317L312.489 140.04L316.075 137.558C316.167 140.224 316.958 145.557 319.385 145.557C322.419 145.557 345.865 145.557 348.072 143.351C349.837 141.585 364.071 144.086 370.967 145.557L388.344 149.971L384.207 155.212V162.383L388.344 170.383L395.792 173.968H402.964L409.584 177.003V181.968L395.792 188.588L384.207 199.345L376.483 205.966L380.621 215.068L384.207 229.688L388.344 253.41L402.964 263.064H421.169L441.857 268.856H461.717L482.681 274.925L495.645 280.993L506.954 284.855L523.504 280.993L531.228 272.166H520.47L510.54 268.856L514.954 258.099L523.504 263.064L531.228 258.099H534.814H542.813H546.951H551.364L556.605 263.064H566.259V272.166L575.362 274.925L588.878 277.959L598.532 274.925L605.704 268.856H619.496L623.357 263.064H631.081L636.046 268.856L641.839 272.166H646.804H650.941L654.803 268.856L660.595 263.064L666.664 258.099L675.215 253.41L686.8 244.307L696.454 239.893L702.523 234.653L710.246 229.688L718.245 234.653V244.307H729.555L747.208 263.064Z" fill="#84240C" fill-opacity="0.1"/>
<path d="M151.4 194.655C151.51 191.543 145.171 193.928 146.711 190.796C144.913 192.347 143.689 194.415 142.298 196.588C139.998 199.245 139.048 199.969 137.379 201.242L137.333 201.278C127.855 184.936 120.111 181.31 103.405 181.417V182.245C100.29 182.512 98.4655 182.354 95.957 185.003C94.0349 185.233 92.8189 184.873 90.4403 185.831C89.715 186.422 89.5098 186.939 89.3369 188.037L89.3276 188.038C85.3519 188.415 83.1203 188.626 78.8551 190.796C78.7436 191.267 78.762 191.505 78.8551 191.899C73.9271 194.559 71.3537 196.516 67.2699 201.278C67.1244 202.118 66.9758 202.518 66.4424 202.933C60.8257 207.974 58.1608 211.21 53.7539 217.276C50.42 221.681 48.6049 223.895 44.0996 233.826C43.1033 234.883 42.8288 236.029 42.7205 238.791C48.6022 245.41 56.0148 248.6 73.89 253.687C79.3138 253.768 82.469 254.038 88.5094 255.342C92.8719 255.793 95.4883 255.965 102.025 255.342C107.167 254.926 109.752 254.418 112.783 252.032C114.645 251.45 115.575 251.601 117.196 252.032C128.415 246.335 133.675 242.024 139.539 230.516C139.79 228.726 139.719 227.96 139.539 226.655C140.72 224.834 141.347 223.621 142.298 220.586C142.491 219.073 142.527 217.984 142.298 215.069C141.781 210.935 141.563 208.614 138.712 204.588C140.598 203.099 149.132 196.957 151.4 194.655Z" stroke="#1B9F30" stroke-opacity="0.1" stroke-width="4"/>
<path d="M63.684 244.86C68.5942 240.225 70.639 237.201 70.3041 229.413M70.3041 229.413C68.9565 223.954 64.127 223.012 53.7539 222.241M70.3041 229.413L82.441 226.103M82.441 226.103C80.7416 221.825 78.629 220.469 73.89 218.931M82.441 226.103C83.0397 236.456 78.0584 240.498 68.9249 247.618M82.441 226.103L98.7153 218.931M98.7153 218.931C85.1338 210.219 77.7165 210.73 64.5115 212.311M98.7153 218.931L103.129 217.276M103.129 217.276C100.519 234.235 93.5648 240.221 80.7859 250.653M103.129 217.276L106.715 215.897M106.715 215.897C92.8423 207.297 85.6467 205.882 72.7867 203.209M106.715 215.897L123.816 209.829M123.816 209.829C118.747 231.99 110.452 239.265 94.8536 251.48M123.816 209.829L79.6826 196.864M123.816 209.829L133.195 205.967M133.195 205.967C130.487 223.856 126.733 231.798 118.851 244.86M133.195 205.967L132.726 205.795M91.8194 190.796C114.118 191.389 123.126 194.709 132.726 205.795M132.726 205.795L137.608 203.209" stroke="#1B9F30" stroke-opacity="0.1" stroke-width="2"/>
<path d="M112.783 158.797C112.893 161.91 111.243 166.828 112.783 169.96C110.985 168.409 108.382 160.142 106.991 157.97C104.67 155.289 104.275 152.223 102.577 150.928C93.0992 167.269 88.9417 171.317 72.2351 171.21L68.6492 169.96C65.5348 169.693 66.4684 170.549 63.96 167.9C62.0379 167.67 58.0635 167.333 55.6849 166.374C58.7191 167.068 54.7544 165.266 54.5815 164.168L54.5722 164.167C50.5965 163.79 48.3649 163.579 44.0997 161.409C43.9882 160.938 49.0277 162.966 44.0997 160.306C39.1717 157.646 35.7708 155.69 31.687 150.928C32.7822 152.177 27.2737 145.533 31.687 149.273C26.0703 144.231 20.647 140.865 16.2402 134.799C14.5852 131.489 16.0562 129.56 11.5509 119.628C10.5546 118.572 3.10833 111.081 3 108.319C8.88169 101.701 14.6393 103.605 32.5146 98.5186C37.9383 98.437 44.6794 96.9345 50.7198 95.6304C55.0823 95.1791 59.6296 95.0075 66.1667 95.6304C71.3082 96.0461 71.6834 97.2854 75.821 97.2854C77.6828 97.8668 79.7164 98.9488 81.3377 98.5186C92.5561 104.215 97.5408 106.19 103.405 117.697C103.655 119.488 105.239 122.46 105.06 123.766C106.241 125.587 106.04 125.972 106.991 129.007C107.184 130.52 107.507 130.665 106.991 134.799C106.474 138.934 106.807 143.591 103.956 147.618C105.843 149.107 110.515 156.495 112.783 158.797Z" stroke="#1B9F30" stroke-opacity="0.1" stroke-width="4"/>
<path d="M22.3086 104.733C27.2188 109.367 29.2635 112.391 28.9287 120.18M28.9287 120.18C27.581 125.639 29.3717 129.193 18.9985 129.964M28.9287 120.18L44.9272 124.317M44.9272 124.317C43.2279 128.596 32.2885 133.391 27.5495 134.929M44.9272 124.317C44.6275 110.999 40.5108 111.332 34.1696 104.587M44.9272 124.317L59.2707 129.006M59.2707 129.006C51.7334 138.654 48.2876 141.166 35.8246 140.04M59.2707 129.006L67.5458 132.868M67.5458 132.868C65.8927 109.508 57.0421 109.779 46.0306 101.553M67.5458 132.868L71.9592 136.308M71.9592 136.308C62.1804 149.953 52.1876 147.859 38.0313 148.996M71.9592 136.308L89.0611 142.376M89.0611 142.376C88.047 115.922 78.1167 110.38 60.0982 100.725M89.0611 142.376C78.4916 152.046 68.1334 154.411 44.9272 155.341M89.0611 142.376L98.4396 146.238M98.4396 146.238C99.3105 125.528 95.0033 118.021 84.0961 107.345M98.4396 146.238L97.9704 146.41M57.064 161.409C80.7752 162.763 90.5695 160.523 97.9704 146.41M97.9704 146.41L102.853 148.996" stroke="#1B9F30" stroke-opacity="0.1" stroke-width="2"/>
<path d="M185.406 108.256L187.18 117.973L181.147 119.904L181.147 117.297L178.455 114.089L174.787 112.975C173.345 112.849 170.182 112.612 169.067 112.673C167.952 112.734 166.322 111.574 165.647 110.987C163.209 110.542 157.943 109.797 156.386 110.375C154.83 110.952 152.312 108.994 151.248 107.943C150.013 107.34 147.213 106.045 145.896 105.692C144.58 105.338 142.185 103.946 141.152 103.295L138.46 100.086L135.685 98.952L128.948 88.751L129.282 87.1948L127.757 85.3769L126.724 81.323L127.021 79.0699L126.133 75.6232L123.71 72.7359L121.75 69.0963L122.35 66.7706L123.419 65.8733L122.01 61.5884L121.948 58.9075L123.124 57.9205L122.544 55.4916L121.208 51.5102L120.769 48.5983L121.745 46.5037L121.329 39.9276L123.132 34.041L122.693 31.129L123.2 27.6061L125.659 25.5423L126.439 23.4305L126.42 17.9791L127.734 15.4186L133.145 19.261L137.031 21.2855L141.865 23.7893C143.112 24.2617 145.731 25.3562 146.234 25.9551L149.284 29.591L154.657 32.7364L160.675 36.4338L163.433 37.7649L168.727 44.0743L170.355 44.7123L172.137 48.138L174.932 50.1661L177.085 52.7327L178.97 54.9784L179.34 58.677L180.59 63.6417C182.386 66.1439 186.024 71.2911 186.212 71.8625C186.447 72.5766 187.424 76.1302 187.18 77.7933C186.984 79.1238 188.893 80.4864 189.872 81.0015C189.787 82.3482 189.575 85.2958 189.407 86.3116C189.239 87.3274 189.754 90.2724 190.033 91.618L189.01 101.041L185.406 108.256Z" stroke="#1B9F30" stroke-opacity="0.1" stroke-width="4"/>
<path d="M129.882 21.4521L139.021 33.6468M139.021 33.6468C140.517 32.0986 141.182 30.936 142.149 28.4706M139.021 33.6468L142.131 38.8733M142.131 38.8733C134.866 40.2741 131.443 38.1847 125.72 32.7804M142.131 38.8733L145.52 43.5011M145.52 43.5011C149.55 41.8903 149.075 29.1367 149.81 31.5189C150.235 32.896 148.316 41.7616 145.52 43.5011ZM145.52 43.5011L150.556 52.7604M150.556 52.7604C154.491 51.1831 155.344 50.1162 155.609 44.5114M150.556 52.7604L150.678 55.5741M150.678 55.5741C141.545 54.2529 136.192 52.0519 125.57 41.2887M150.678 55.5741L155.258 62.1183M155.258 62.1183C149.077 61.4383 145.644 60.7058 139.607 58.6681M155.258 62.1183L160.046 71.9505M160.046 71.9505C165.275 62.7148 166.015 56.1953 161.657 41.0769M160.046 71.9505L161.703 75.6628M161.703 75.6628C147.91 71.4706 140.336 66.384 126.974 54.6894M161.703 75.6628L166.128 83.9769M166.128 83.9769C175.282 73.9441 175.648 66.2638 169.909 49.825M166.128 83.9769L170.288 93.0606M170.288 93.0606C152.644 87.1266 143.092 82.1657 127.057 68.4698M170.288 93.0606L177.284 105.96M170.288 93.0606L172.335 97.021M177.284 105.96C161.794 103.256 152.991 100.924 135.97 87.7791M177.284 105.96L179.356 110.6M179.356 110.6C185.35 101.584 184.351 94.5958 181.778 81.7789M179.356 110.6L172.335 97.021M172.335 97.021C179.12 85.133 180.171 78.1024 177.896 64.9907" stroke="#1B9F30" stroke-opacity="0.1" stroke-width="2"/>
<path d="M211.141 76.5222L216.276 78.0437L219.89 78.8044L223.123 78.0437L227.307 76.5222C228.511 77.0294 231.377 78.0437 233.203 78.0437H234.154V80.1836L243.663 78.0437V75.1909C244.487 74.0498 246.135 71.6155 246.135 71.0069C246.135 70.3983 249.685 68.0908 251.46 67.0131L254.693 63.9343L257.736 59.2156V56.5531L255.644 51.9887L254.693 51.228L252.411 49.1359L253.362 46.093V42.8599L252.411 39.817L251.46 38.2955L250.319 35.633V31.6392L249.178 25.173L247.656 22.5104L246.135 17.5657L244.614 13.762L241.951 11.67L240.049 9.7682L238.338 8.05656C237.07 7.54941 234.268 6.5351 233.203 6.5351H228.448H223.123L219.89 5.15591L212.636 2.94922L210.705 5.15591C210.388 5.47289 207.395 8.05656 207.395 8.05656C207.395 8.05656 207.338 12.0504 205.056 13.762C204.143 14.3706 203.429 15.1717 203.809 15.3619C202.859 15.9958 201.975 17.1092 201.062 17.5657C200.149 18.0221 199.287 19.6577 198.97 20.4184C198.653 20.8622 197.867 22.2061 197.258 24.0319C196.649 25.8576 196.371 25.5533 196.307 25.173C195.863 26.3141 194.748 28.7864 193.835 29.5472C192.694 30.4981 193.835 31.6392 193.835 32.9704V35.633C193.835 36.5839 194.976 37.5348 194.976 38.2955C194.976 38.9041 194.215 40.1974 193.835 40.7679V44.1912V49.1359C194.659 50.4038 196.307 53.0917 196.307 53.7003V55.7923C196.497 56.6798 196.954 58.607 197.258 59.2156C197.562 59.8242 197.892 61.1174 198.019 61.688L201.062 64.5407V66.2524C201.315 67.0131 201.899 68.6487 202.203 69.1051C202.507 69.5615 204.231 71.0703 205.056 71.7676L209.24 73.6695V75.1909L211.141 76.5222Z" stroke="#1B9F30" stroke-opacity="0.1" stroke-width="4"/>
<path d="M239.732 75.7611V74.0495M239.732 74.0495C246.867 66.113 249.892 61.3265 250.763 51.2276M239.732 74.0495L237.45 70.436M237.45 70.436C223.106 69.5452 215.707 68.253 204.738 63.2091M237.45 70.436L235.738 66.252M235.738 66.252C242.922 58.4251 246.206 53.1239 248.29 39.0559M235.738 66.252L234.026 60.9269M234.026 60.9269C215.166 56.6295 208.725 51.3879 197.702 41.7185M234.026 60.9269L231.934 56.7429L229.462 49.516M229.462 49.516C236.684 40.963 240.515 35.9196 244.487 23.6512M229.462 49.516L226.609 46.0927M226.609 46.0927C218.614 46.2963 214.74 45.5712 209.683 41.7185M226.609 46.0927L223.947 40.3872M223.947 40.3872C210.486 35.051 206.188 32.376 200.935 27.8352M223.947 40.3872V32.7799M223.947 32.7799C232.885 28.5959 235.964 25.4205 238.971 17.7555M223.947 32.7799L220.143 27.8352M220.143 27.8352C212.498 27.6731 208.874 26.6222 204.738 21.369M220.143 27.8352C226.376 23.7269 228.993 21.1305 231.934 16.0439M220.143 27.8352L216.72 17.7555M216.72 17.7555C221.838 16.7102 223.88 15.555 225.658 12.2402M216.72 17.7555L215.769 14.5224C214.247 14.4326 213.352 14.0844 211.585 12.2402" stroke="#1B9F30" stroke-opacity="0.1" stroke-width="2"/>
</svg>
