<svg width="161" height="169" viewBox="0 0 161 169" fill="none" xmlns="http://www.w3.org/2000/svg">
<path d="M9 169V147H152V169" stroke="#84240C" stroke-width="10"/>
<path d="M5 107V146H156V107H5Z" stroke="#84240C" stroke-width="10"/>
<path d="M87 56V95H156V56H87Z" fill="#8F5454" stroke="#84240C" stroke-width="10"/>
<path d="M5 5V44H156V5H5Z" fill="#AD796E" stroke="#84240C" stroke-width="10"/>
<path d="M17 140.389V112.111" stroke="#84240C" stroke-width="2"/>
<path d="M24.9375 112.111V140.389" stroke="#84240C" stroke-width="2"/>
<path d="M32.875 112.111V140.389" stroke="#84240C" stroke-width="2"/>
<path d="M40.8125 112.111V140.389" stroke="#84240C" stroke-width="2"/>
<path d="M48.75 112.111V140.389" stroke="#84240C" stroke-width="2"/>
<path d="M56.6875 112.111V140.389" stroke="#84240C" stroke-width="2"/>
<path d="M64.625 112.111V140.389" stroke="#84240C" stroke-width="2"/>
<path d="M72.5625 112.111V140.389" stroke="#84240C" stroke-width="2"/>
<path d="M80.5 112.111V140.389" stroke="#84240C" stroke-width="2"/>
<path d="M88.4375 112.111V140.389" stroke="#84240C" stroke-width="2"/>
<path d="M96.375 112.111V140.389" stroke="#84240C" stroke-width="2"/>
<path d="M104.312 112.111V140.389" stroke="#84240C" stroke-width="2"/>
<path d="M112.25 112.111V140.389" stroke="#84240C" stroke-width="2"/>
<path d="M120.188 112.111V140.389" stroke="#84240C" stroke-width="2"/>
<path d="M128.125 112.111V140.389" stroke="#84240C" stroke-width="2"/>
<path d="M136.062 112.111V140.389" stroke="#84240C" stroke-width="2"/>
<path d="M144 112.111V140.389" stroke="#84240C" stroke-width="2"/>
<path d="M10 111H151.5" stroke="#84240C"/>
<path d="M10 121H151.5" stroke="#84240C" stroke-width="2"/>
<path d="M9 141H150.5" stroke="#84240C"/>
<path d="M10 132H151.5" stroke="#84240C" stroke-width="2"/>
<path d="M31 76L51 76" stroke="#D6A164" stroke-width="5" stroke-linecap="round"/>
<path d="M112 76L132 76" stroke="#D6A164" stroke-width="5" stroke-linecap="round"/>
<path d="M5 56V95H74V56H5Z" fill="#8F5454" stroke="#84240C" stroke-width="10"/>
<path d="M30 76L50 76" stroke="#D6A164" stroke-width="5" stroke-linecap="round"/>
<path d="M62 25H98.5" stroke="#D6A164" stroke-width="5" stroke-linecap="round"/>
</svg>
