<svg width="256" height="62" viewBox="0 0 256 62" fill="none" xmlns="http://www.w3.org/2000/svg">
<path d="M89.72 11.12C91.6933 11.12 93.52 11.6 95.2 12.56C96.88 13.52 97.72 14.4667 97.72 15.4C97.72 16.3067 97.3467 16.76 96.6 16.76C96.12 16.76 95.2933 16.24 94.12 15.2C93.6667 14.8 93.0133 14.44 92.16 14.12C91.3067 13.8 90.36 13.64 89.32 13.64C87.3467 13.64 85.7467 14.1867 84.52 15.28C83.32 16.3467 82.72 17.8 82.72 19.64C82.72 21.64 84.2667 23.7733 87.36 26.04C88.64 26.9733 89.92 27.9467 91.2 28.96C92.48 29.9733 93.5733 31.1733 94.48 32.56C95.3867 33.9467 95.84 35.4267 95.84 37C95.84 39.96 94.8667 42.2933 92.92 44C91 45.7067 88.52 46.56 85.48 46.56C82.44 46.56 79.96 45.7333 78.04 44.08C77.4 43.5467 76.84 42.8933 76.36 42.12C75.9067 41.32 75.68 40.64 75.68 40.08C75.68 38.9867 76.1067 38.44 76.96 38.44C77.2533 38.44 77.4933 38.5467 77.68 38.76C77.8933 38.9467 78.12 39.3067 78.36 39.84C78.6267 40.3733 78.8267 40.7467 78.96 40.96C80.3733 42.9867 82.4533 44 85.2 44C87.3867 44 89.1733 43.3733 90.56 42.12C91.9467 40.84 92.64 39.1867 92.64 37.16C92.64 35.0533 91.0933 32.84 88 30.52C86.72 29.56 85.4267 28.5733 84.12 27.56C82.84 26.5467 81.7467 25.3733 80.84 24.04C79.9333 22.68 79.48 21.24 79.48 19.72C79.48 17 80.44 14.8933 82.36 13.4C84.3067 11.88 86.76 11.12 89.72 11.12ZM116.988 27.48C116.988 27.9067 116.855 28.2533 116.588 28.52C116.588 28.5467 116.575 28.5867 116.548 28.64L103.588 43.64H114.468C115.055 43.64 115.348 44.0133 115.348 44.76C115.348 45.1333 115.228 45.48 114.988 45.8C114.775 46.12 114.508 46.28 114.188 46.28H100.308C99.6415 46.28 99.3081 45.8667 99.3081 45.04C99.3081 44.6133 99.4681 44.24 99.7881 43.92L112.628 28.96H103.308C103.015 28.96 102.761 28.84 102.548 28.6C102.361 28.3333 102.268 28.04 102.268 27.72C102.268 27.4 102.388 27.08 102.628 26.76C102.895 26.44 103.188 26.28 103.508 26.28H116.108C116.695 26.28 116.988 26.68 116.988 27.48ZM135.146 37.72C135.039 38.5733 134.986 39.56 134.986 40.68C134.986 41.8 135.092 42.84 135.306 43.8C135.546 44.76 135.666 45.3067 135.666 45.44C135.666 45.76 135.412 46.0267 134.906 46.24C134.426 46.4533 134.026 46.56 133.706 46.56C133.386 46.56 133.146 46.44 132.986 46.2C132.852 45.96 132.732 45.6267 132.626 45.2C132.546 44.7733 132.479 44.3867 132.426 44.04C132.292 43.16 132.226 42.4533 132.226 41.92C130.732 45.0133 128.359 46.56 125.106 46.56C123.346 46.56 122.012 45.9867 121.106 44.84C120.226 43.6933 119.786 42.2 119.786 40.36C119.786 39.3733 120.292 34.8267 121.306 26.72C121.386 26.0533 121.906 25.72 122.866 25.72C123.852 25.72 124.346 25.9867 124.346 26.52C123.332 34.2267 122.826 38.8133 122.826 40.28C122.826 42.7067 123.866 43.92 125.946 43.92C127.012 43.92 127.959 43.6133 128.786 43C129.612 42.3867 130.279 41.56 130.786 40.52C131.692 38.5733 132.306 36.3467 132.626 33.84L133.506 26.72C133.586 26.0533 134.212 25.72 135.386 25.72C136.159 25.72 136.546 25.9867 136.546 26.52L135.146 37.72ZM151.162 28.96H147.162L144.762 49.64C144.229 54.5733 142.722 57.68 140.242 58.96C139.256 59.4933 138.056 59.76 136.642 59.76C135.229 59.76 133.896 59.4533 132.642 58.84C131.362 58.2533 130.722 57.72 130.722 57.24C130.722 56.8933 130.909 56.4933 131.282 56.04C131.629 55.5867 131.976 55.36 132.322 55.36C132.349 55.36 132.536 55.4933 132.882 55.76C133.229 56.0533 133.749 56.3333 134.442 56.6C135.136 56.8933 135.869 57.04 136.642 57.04C137.389 57.04 137.989 56.96 138.442 56.8C138.922 56.64 139.362 56.3067 139.762 55.8C140.162 55.2933 140.482 54.7067 140.722 54.04C140.989 53.4 141.256 52.4533 141.522 51.2C141.869 49.4667 142.309 46.3467 142.842 41.84L144.322 28.96H141.122C140.776 28.96 140.509 28.84 140.322 28.6C140.136 28.36 140.042 28.08 140.042 27.76C140.042 27.4133 140.176 27.08 140.442 26.76C140.709 26.44 140.989 26.28 141.282 26.28H144.642L145.162 21.72C145.616 17.5333 146.509 14.6133 147.842 12.96C149.069 11.4667 150.776 10.72 152.962 10.72C154.162 10.72 155.309 10.8667 156.402 11.16C157.496 11.4533 158.042 11.7733 158.042 12.12C158.042 12.52 157.896 12.9733 157.602 13.48C157.309 13.9867 156.989 14.24 156.642 14.24C156.616 14.24 156.456 14.1733 156.162 14.04C155.282 13.6667 154.336 13.48 153.322 13.48C152.336 13.48 151.549 13.6667 150.962 14.04C150.402 14.4133 149.962 14.84 149.642 15.32C149.349 15.8 149.082 16.4933 148.842 17.4C148.549 18.4667 148.282 20 148.042 22L147.522 26.28H151.442C152.056 26.28 152.362 26.68 152.362 27.48C152.362 27.8267 152.242 28.16 152.002 28.48C151.762 28.8 151.482 28.96 151.162 28.96ZM155.285 46.56C154.885 46.56 154.605 46.5067 154.445 46.4C154.285 46.2933 154.205 46.08 154.205 45.76L158.285 11.56C158.392 10.8667 158.912 10.52 159.845 10.52C160.805 10.52 161.285 10.8 161.285 11.36L157.165 45.56C157.085 46.2267 156.459 46.56 155.285 46.56ZM165.891 41.08C165.891 41.88 166.158 42.56 166.691 43.12C167.251 43.6533 167.984 43.92 168.891 43.92C170.544 43.92 171.944 43.0933 173.091 41.44C174.238 39.76 174.984 37.8667 175.331 35.76C171.918 36.0267 169.491 36.6133 168.051 37.52C166.611 38.4267 165.891 39.6133 165.891 41.08ZM179.131 30.32C179.131 31.04 178.878 32.8267 178.371 35.68C177.891 38.5067 177.651 40.4533 177.651 41.52C177.651 42.5867 177.718 43.4667 177.851 44.16C178.011 44.8533 178.091 45.28 178.091 45.44C178.091 45.76 177.824 46.0267 177.291 46.24C176.758 46.4533 176.251 46.56 175.771 46.56C175.184 46.56 174.891 45.36 174.891 42.96V41.92C174.118 43.44 173.091 44.6 171.811 45.4C170.531 46.1733 169.184 46.56 167.771 46.56C166.358 46.56 165.158 46.1333 164.171 45.28C163.211 44.4267 162.731 43.2267 162.731 41.68C162.731 39.4667 163.744 37.6 165.771 36.08C167.824 34.56 171.184 33.6533 175.851 33.36C175.984 32.56 176.051 31.7333 176.051 30.88C176.051 29.2267 174.824 28.4 172.371 28.4C171.144 28.4 169.891 28.6533 168.611 29.16C167.358 29.6667 166.704 29.92 166.651 29.92C166.304 29.92 166.024 29.72 165.811 29.32C165.598 28.8933 165.491 28.4533 165.491 28C165.491 27.5467 166.318 27.0533 167.971 26.52C169.624 25.9867 171.264 25.72 172.891 25.72C174.518 25.72 175.958 26.0933 177.211 26.84C178.491 27.56 179.131 28.72 179.131 30.32ZM198.61 31.88L198.69 31.28C198.69 29.3333 197.49 28.36 195.09 28.36C193.117 28.36 191.517 29.2667 190.29 31.08C189.063 32.8667 188.263 35.24 187.89 38.2L186.97 45.56C186.89 46.2267 186.263 46.56 185.09 46.56C184.69 46.56 184.41 46.5067 184.25 46.4C184.09 46.2933 184.01 46.08 184.01 45.76L186.29 26.72C186.37 26.0533 186.89 25.72 187.85 25.72C188.81 25.72 189.29 25.9867 189.29 26.52L188.93 29.32H189.17C190.823 26.92 192.93 25.72 195.49 25.72C197.517 25.72 199.063 26.2 200.13 27.16C201.223 28.0933 201.77 29.3867 201.77 31.04C201.77 31.28 201.157 36.12 199.93 45.56C199.85 46.2267 199.197 46.56 197.97 46.56C197.277 46.56 196.93 46.2933 196.93 45.76L198.61 31.88ZM222.023 37.72C221.917 38.8667 221.863 39.9333 221.863 40.92C221.863 41.88 221.983 42.84 222.223 43.8C222.463 44.76 222.583 45.3067 222.583 45.44C222.583 45.76 222.33 46.0267 221.823 46.24C221.317 46.4533 220.903 46.56 220.583 46.56C220.263 46.56 220.023 46.44 219.863 46.2C219.73 45.96 219.61 45.64 219.503 45.24C219.423 44.8133 219.357 44.4133 219.303 44.04C219.277 43.64 219.237 43.2267 219.183 42.8C219.157 42.3467 219.13 42.0533 219.103 41.92C218.49 43.36 217.503 44.4933 216.143 45.32C214.81 46.1467 213.343 46.56 211.743 46.56C210.143 46.56 208.73 45.9467 207.503 44.72C206.303 43.4933 205.703 41.6933 205.703 39.32C205.703 36.76 206.317 34.4 207.543 32.24C208.263 30.9867 209.157 29.8933 210.223 28.96C211.317 28 212.743 27.2267 214.503 26.64C216.263 26.0267 218.25 25.72 220.463 25.72L222.263 11.44C222.29 10.8267 222.903 10.52 224.103 10.52C224.85 10.52 225.223 10.8267 225.223 11.44L222.023 37.72ZM219.223 28.2C216.29 28.2 213.85 29.2533 211.903 31.36C209.957 33.4667 208.983 36 208.983 38.96C208.983 40.3733 209.317 41.56 209.983 42.52C210.65 43.4533 211.623 43.92 212.903 43.92C216.477 43.92 218.677 40.56 219.503 33.84L220.183 28.32C219.997 28.24 219.677 28.2 219.223 28.2ZM229.074 46.56C228.674 46.56 228.394 46.5067 228.234 46.4C228.074 46.2933 227.994 46.08 227.994 45.76L230.274 26.72C230.354 26.0533 230.874 25.72 231.834 25.72C232.794 25.72 233.274 25.9867 233.274 26.52L230.954 45.56C230.874 46.2267 230.248 46.56 229.074 46.56ZM234.874 18.32C234.874 19.9733 234.114 20.8 232.594 20.8C231.394 20.8 230.794 20.2933 230.794 19.28C230.794 17.6533 231.554 16.84 233.074 16.84C234.274 16.84 234.874 17.3333 234.874 18.32ZM239.68 41.08C239.68 41.88 239.947 42.56 240.48 43.12C241.04 43.6533 241.773 43.92 242.68 43.92C244.333 43.92 245.733 43.0933 246.88 41.44C248.027 39.76 248.773 37.8667 249.12 35.76C245.707 36.0267 243.28 36.6133 241.84 37.52C240.4 38.4267 239.68 39.6133 239.68 41.08ZM252.92 30.32C252.92 31.04 252.667 32.8267 252.16 35.68C251.68 38.5067 251.44 40.4533 251.44 41.52C251.44 42.5867 251.507 43.4667 251.64 44.16C251.8 44.8533 251.88 45.28 251.88 45.44C251.88 45.76 251.613 46.0267 251.08 46.24C250.547 46.4533 250.04 46.56 249.56 46.56C248.973 46.56 248.68 45.36 248.68 42.96V41.92C247.907 43.44 246.88 44.6 245.6 45.4C244.32 46.1733 242.973 46.56 241.56 46.56C240.147 46.56 238.947 46.1333 237.96 45.28C237 44.4267 236.52 43.2267 236.52 41.68C236.52 39.4667 237.533 37.6 239.56 36.08C241.613 34.56 244.973 33.6533 249.64 33.36C249.773 32.56 249.84 31.7333 249.84 30.88C249.84 29.2267 248.613 28.4 246.16 28.4C244.933 28.4 243.68 28.6533 242.4 29.16C241.147 29.6667 240.493 29.92 240.44 29.92C240.093 29.92 239.813 29.72 239.6 29.32C239.387 28.8933 239.28 28.4533 239.28 28C239.28 27.5467 240.107 27.0533 241.76 26.52C243.413 25.9867 245.053 25.72 246.68 25.72C248.307 25.72 249.747 26.0933 251 26.84C252.28 27.56 252.92 28.72 252.92 30.32Z" fill="white"/>
<path d="M3.45697 61.7349V53.7217H55.5431V61.7349" stroke="#00EE26" stroke-width="4"/>
<path d="M2 39.1523V53.3576H57V39.1523H2Z" stroke="#00EE26" stroke-width="4"/>
<path d="M31.8676 20.5762V34.7815H57V20.5762H31.8676Z" stroke="#00EE26" stroke-width="4"/>
<path d="M2 2V16.2053H57V2H2Z" stroke="#00EE26" stroke-width="4"/>
<path d="M6.95001 39.9502V52.6002" stroke="#00EE26" stroke-width="2"/>
<path d="M11.9 39.9502V52.6002" stroke="#00EE26" stroke-width="2"/>
<path d="M16.85 39.9502V52.6002" stroke="#00EE26" stroke-width="2"/>
<path d="M21.8 39.9502V52.6002" stroke="#00EE26" stroke-width="2"/>
<path d="M26.75 39.9502V52.6002" stroke="#00EE26" stroke-width="2"/>
<path d="M31.7 39.9502V52.6002" stroke="#00EE26" stroke-width="2"/>
<path d="M36.65 39.9502V52.6002" stroke="#00EE26" stroke-width="2"/>
<path d="M41.6 39.9502V52.6002" stroke="#00EE26" stroke-width="2"/>
<path d="M46.55 39.9502V52.6002" stroke="#00EE26" stroke-width="2"/>
<path d="M51.5 39.9502V52.6002" stroke="#00EE26" stroke-width="2"/>
<path d="M56.45 39.9502V52.6002" stroke="#00EE26" stroke-width="2"/>
<path d="M3.65002 39.9502H55.1898" stroke="#00EE26"/>
<path d="M3.09998 44.3501H56.45" stroke="#00EE26" stroke-width="2"/>
<path d="M3.65002 52.6001H55.1898" stroke="#00EE26"/>
<path d="M3.09998 48.2002H56.45" stroke="#00EE26" stroke-width="2"/>
<path d="M11.4702 27.8608L18.755 27.8608" stroke="#00EE26" stroke-width="5" stroke-linecap="round"/>
<path d="M40.9735 27.8608L48.2583 27.8608" stroke="#00EE26" stroke-width="5" stroke-linecap="round"/>
<path d="M2 20.5762V34.7815H27.1325V20.5762H2Z" stroke="#00EE26" stroke-width="4"/>
<path d="M11.106 27.8608L18.3907 27.8608" stroke="#00EE26" stroke-width="5" stroke-linecap="round"/>
<path d="M22.7616 9.28467H36.0563" stroke="#00EE26" stroke-width="5" stroke-linecap="round"/>
</svg>
