<svg width="146" height="686" viewBox="0 0 146 686" fill="none" xmlns="http://www.w3.org/2000/svg">
<path d="M0 684H144V548.5H0" stroke="#382E2E" stroke-opacity="0.15" stroke-width="4"/>
<path d="M144 546.5V410H0" stroke="#382E2E" stroke-opacity="0.15" stroke-width="4"/>
<path d="M144 408V274H0" stroke="#382E2E" stroke-opacity="0.15" stroke-width="4"/>
<path d="M144 272V138H0" stroke="#382E2E" stroke-opacity="0.15" stroke-width="4"/>
<path d="M144 136V2H0" stroke="#382E2E" stroke-opacity="0.15" stroke-width="4"/>
<path d="M110.265 34.8015C95.1913 23.7689 85.6227 22.088 68.0808 21C44.2768 21.8274 36.0447 25.8571 23.8745 34.8015C18.1008 40.0955 15.3264 44.4868 11.1616 54.6412C10.6278 61.7453 11.3492 64.8971 14.3398 69.3053L23.8745 79.369L37.4542 85.6947C36.6469 104.538 33.8117 110.258 27.9195 118.761V134H68.0808H106.508V118.761C100.003 106.253 97.7384 99.0679 98.4184 85.6947L110.265 79.369C116.754 76.304 117.773 74.5657 122.111 69.3053C123.171 64.8315 125 61.542 125 54.6412C121.339 46.546 118.637 42.0685 110.265 34.8015Z" stroke="#382E2E" stroke-opacity="0.15" stroke-width="4"/>
<path d="M86.6025 321.48C81.0765 312.864 77.5441 309.07 68.4364 309C59.1925 309.137 55.1359 312.267 49.2403 321.48L50.1767 325.923V334.81L52.7986 338.592V343.319L41 349.369V406H94V349.369L82.576 343.319V338.592L85.5724 334.81V325.923L86.6025 321.48Z" stroke="#382E2E" stroke-opacity="0.15" stroke-width="4"/>
<ellipse cx="62.3486" cy="313.578" rx="0.467799" ry="0.464927" fill="#382E2E" fill-opacity="0.15"/>
<ellipse cx="65.1554" cy="312.647" rx="0.467799" ry="0.464927" fill="#382E2E" fill-opacity="0.15"/>
<ellipse cx="67.9621" cy="312.089" rx="0.467799" ry="0.464927" fill="#382E2E" fill-opacity="0.15"/>
<ellipse cx="70.769" cy="312.089" rx="0.467799" ry="0.464927" fill="#382E2E" fill-opacity="0.15"/>
<ellipse cx="73.5758" cy="312.647" rx="0.467799" ry="0.464927" fill="#382E2E" fill-opacity="0.15"/>
<ellipse cx="76.1955" cy="313.578" rx="0.467799" ry="0.464927" fill="#382E2E" fill-opacity="0.15"/>
<ellipse cx="71.7046" cy="314.136" rx="0.467799" ry="0.464927" fill="#382E2E" fill-opacity="0.15"/>
<ellipse cx="67.0267" cy="314.136" rx="0.467799" ry="0.464927" fill="#382E2E" fill-opacity="0.15"/>
<path d="M129.104 614.564C129.232 610.933 130.203 608.886 132 605.231C129.902 607.041 128.796 608.167 127.173 610.702C124.49 613.801 123.381 614.647 121.434 616.132L121.38 616.173C110.323 597.108 101.289 592.877 81.7979 593.003V593.968C78.1645 594.28 76.0356 594.096 73.109 597.186C70.8666 597.454 69.4479 597.034 66.6729 598.152C65.8268 598.842 65.5873 599.444 65.3856 600.726L65.3748 600.727C60.7365 601.166 58.1329 601.413 53.1569 603.944C53.0269 604.494 53.0483 604.772 53.1569 605.231C47.4076 608.335 44.4054 610.617 39.641 616.173C39.4712 617.154 39.2978 617.62 38.6755 618.104C32.1227 623.985 29.0136 627.761 23.8723 634.838C19.9827 639.977 17.8651 642.56 12.609 654.146C11.4466 655.379 11.1264 656.716 11 659.939C17.8619 667.66 26.51 671.382 47.3644 677.317C53.6921 677.412 57.3731 677.726 64.4202 679.247C69.5098 679.774 72.5623 679.974 80.1888 679.247C86.1873 678.762 89.2029 678.17 92.7394 675.386C94.9115 674.707 95.9967 674.884 97.8883 675.386C110.976 668.74 117.114 663.71 123.955 650.285C124.247 648.196 124.164 647.302 123.955 645.779C125.333 643.655 126.064 642.24 127.173 638.699C127.399 636.934 127.44 635.664 127.173 632.263C126.571 627.44 126.316 624.732 122.989 620.035C125.191 618.297 126.458 617.25 129.104 614.564Z" stroke="#382E2E" stroke-opacity="0.15" stroke-width="4"/>
<path d="M35.4574 667.019C41.1859 661.612 43.5715 658.084 43.1808 648.998M43.1808 648.998C41.6086 642.628 35.9743 641.53 23.8723 640.631M43.1808 648.998L57.3404 645.136M57.3404 645.136C55.3578 640.144 52.8932 638.563 47.3643 636.769M57.3404 645.136C58.0389 657.215 52.2275 661.93 41.5718 670.237M57.3404 645.136L76.3271 636.769M76.3271 636.769C60.482 626.604 51.8286 627.2 36.4228 629.045M76.3271 636.769L81.476 634.838M81.476 634.838C78.4317 654.624 70.3181 661.607 55.4095 673.777M81.476 634.838L85.6595 633.229M85.6595 633.229C69.4753 623.195 61.0805 621.545 46.0771 618.426M85.6595 633.229L105.612 626.149M105.612 626.149C99.6975 652.004 90.0203 660.491 71.8218 674.742M105.612 626.149L54.1223 611.024M105.612 626.149L116.553 621.644M116.553 621.644C113.394 642.514 109.014 651.78 99.8191 667.019M116.553 621.644L116.006 621.443M68.2819 603.944C94.2973 604.636 104.806 608.509 116.006 621.443M116.006 621.443L121.702 618.426" stroke="#382E2E" stroke-opacity="0.15" stroke-width="2"/>
</svg>
