<svg width="50" height="50" viewBox="0 0 50 50" fill="none" xmlns="http://www.w3.org/2000/svg">
<circle cx="25" cy="25" r="23.5" stroke="#1B9F30" stroke-width="3"/>
<path d="M23.2512 36.7746L23.4698 36.3249H23.4698L23.2512 36.7746ZM26.7488 36.7746L26.5302 36.3249L26.7488 36.7746ZM26.8744 36.7135L26.6558 36.2638L26.8744 36.7135ZM28.0487 34.916L27.5502 34.8771L28.0487 34.916ZM27.8232 36.1052L28.2364 36.3867L27.8232 36.1052ZM21.9513 34.916L22.4498 34.8771L21.9513 34.916ZM23.1256 36.7135L22.907 37.1632L23.1256 36.7135ZM22.1768 36.1052L21.7636 36.3867L22.1768 36.1052ZM19.8459 28.757L19.5646 29.1704L19.8459 28.757ZM20.6076 29.6216L20.1509 29.8251L20.6076 29.6216ZM20.3557 29.15L20.7393 28.8293L20.3557 29.15ZM30.1541 28.757L30.4354 29.1704L30.1541 28.757ZM29.3924 29.6216L28.9357 29.4181L29.3924 29.6216ZM29.6443 29.15L29.2607 28.8293L29.6443 29.15ZM33.5 21.583C33.5 24.3754 32.0704 26.8485 29.8729 28.3436L30.4354 29.1704C32.8884 27.5015 34.5 24.7279 34.5 21.583H33.5ZM25 13.333C29.7078 13.333 33.5 17.0398 33.5 21.583H34.5C34.5 16.4612 30.2333 12.333 25 12.333V13.333ZM16.5 21.583C16.5 17.0398 20.2922 13.333 25 13.333V12.333C19.7667 12.333 15.5 16.4612 15.5 21.583H16.5ZM20.1271 28.3436C17.9296 26.8485 16.5 24.3754 16.5 21.583H15.5C15.5 24.7279 17.1116 27.5015 19.5646 29.1704L20.1271 28.3436ZM22.4498 34.8771C22.3026 32.9904 21.8336 31.1441 21.0643 29.4181L20.1509 29.8251C20.8738 31.447 21.3145 33.182 21.4528 34.9549L22.4498 34.8771ZM23.4698 36.3249L23.3442 36.2638L22.907 37.1632L23.0326 37.2243L23.4698 36.3249ZM26.5302 36.3249C25.5641 36.7945 24.4359 36.7945 23.4698 36.3249L23.0326 37.2243C24.2747 37.8281 25.7253 37.8281 26.9674 37.2243L26.5302 36.3249ZM26.6558 36.2638L26.5302 36.3249L26.9674 37.2243L27.093 37.1632L26.6558 36.2638ZM28.9357 29.4181C28.1664 31.1441 27.6974 32.9904 27.5502 34.8771L28.5472 34.9549C28.6855 33.182 29.1262 31.447 29.8491 29.8251L28.9357 29.4181ZM27.093 37.1632C27.3509 37.0378 27.5754 36.9293 27.7519 36.8221C27.9358 36.7104 28.1058 36.5785 28.2364 36.3867L27.41 35.8236C27.3908 35.8518 27.3527 35.8946 27.2329 35.9673C27.1055 36.0446 26.9305 36.1303 26.6558 36.2638L27.093 37.1632ZM27.5502 34.8771C27.5243 35.2091 27.5069 35.426 27.48 35.5886C27.4538 35.7466 27.426 35.8003 27.41 35.8236L28.2364 36.3867C28.3704 36.1901 28.43 35.9722 28.4665 35.7522C28.5022 35.5368 28.5227 35.2691 28.5472 34.9549L27.5502 34.8771ZM21.4528 34.9549C21.4773 35.2691 21.4978 35.5368 21.5335 35.7522C21.57 35.9722 21.6296 36.1901 21.7636 36.3867L22.59 35.8236C22.574 35.8003 22.5462 35.7466 22.52 35.5886C22.4931 35.426 22.4757 35.2091 22.4498 34.8771L21.4528 34.9549ZM23.3442 36.2638C23.0695 36.1303 22.8945 36.0446 22.7671 35.9673C22.6473 35.8946 22.6092 35.8518 22.59 35.8236L21.7636 36.3867C21.8942 36.5785 22.0642 36.7104 22.2481 36.8221C22.4246 36.9293 22.6491 37.0378 22.907 37.1632L23.3442 36.2638ZM19.5646 29.1704C19.8743 29.3811 19.9388 29.4309 19.9721 29.4707L20.7393 28.8293C20.5937 28.6551 20.378 28.5143 20.1271 28.3436L19.5646 29.1704ZM21.0643 29.4181C20.9659 29.1973 20.8832 29.0014 20.7393 28.8293L19.9721 29.4707C20.007 29.5124 20.0326 29.5597 20.1509 29.8251L21.0643 29.4181ZM29.8729 28.3436C29.622 28.5143 29.4063 28.6551 29.2607 28.8293L30.0279 29.4707C30.0612 29.4309 30.1257 29.3811 30.4354 29.1704L29.8729 28.3436ZM29.8491 29.8251C29.9674 29.5597 29.993 29.5124 30.0279 29.4707L29.2607 28.8293C29.1168 29.0014 29.0341 29.1973 28.9357 29.4181L29.8491 29.8251Z" fill="#1B9F30"/>
<path d="M28.75 31.0625V31.0625C26.338 32.0005 23.662 32.0005 21.25 31.0625V31.0625" stroke="#1B9F30"/>
<path d="M23.8571 28V23.4286C23.8571 22.6396 23.2176 22 22.4286 22H22.3636C21.6105 22 21 22.6105 21 23.3636V23.3636C21 24.1168 21.6105 24.7273 22.3636 24.7273H27.6364C28.3895 24.7273 29 24.1168 29 23.3636V23.3636C29 22.6105 28.3895 22 27.6364 22H27.5714C26.7825 22 26.1429 22.6396 26.1429 23.4286V28" stroke="#1B9F30" stroke-linecap="round"/>
</svg>
