<svg width="206" height="159" viewBox="0 0 206 159" fill="none" xmlns="http://www.w3.org/2000/svg">
<path d="M23.4882 158.013V133.328H183.939V158.013" stroke="#84240C" stroke-width="10"/>
<path d="M15.3251 46.3058L20.2266 126.306C20.3882 128.944 22.5746 131 25.2172 131H182.361C185.017 131 187.209 128.924 187.354 126.272L191.713 46.272C191.869 43.408 189.588 41 186.72 41H20.3157C17.434 41 15.1489 43.4295 15.3251 46.3058Z" fill="#AD796E" stroke="#84240C" stroke-width="7" stroke-linecap="round"/>
<path d="M4 36H202.5" stroke="#AD796E" stroke-width="7" stroke-linecap="round"/>
<path d="M118 2V31H136V2H118Z" fill="#84240C"/>
<path d="M137 11.5C140.959 9.90878 141.059 9.77203 144.5 11.5C147.409 16.6975 146.948 15.6105 144.5 19.5C140.669 21.5961 140.57 21.927 137 19.5M118 31V2H136V31H118Z" stroke="#84240C" stroke-width="3" stroke-linecap="round"/>
<path d="M59.9873 3H60.5H61.0127L61.5823 3.62222L61.2405 4.36889L62.038 5.24L62.1519 5.86222L61.6962 6.36L62.1519 6.60889V7.23111L61.6962 7.72889L62.2658 8.35111L63.6329 9.09778L63.4051 9.96889L62.038 13.3289L62.4937 13.8267V14.4489L62.1519 14.8222V15.88L63.6329 16.6889V17.56H62.1519V22.2889L62.6076 23.9067L63.4051 24.7778L63.519 26.2711L65 27.8889L64.7722 29.1333L64.0886 29.5067L64.5443 30.1289V31H56.5696V30.1289L57.0253 29.5067L56.2278 29.1333L56 27.8889L57.481 26.2711L57.5949 24.7778L58.3924 23.9067L58.8481 22.2889V17.56H57.3671V16.6889L58.8481 15.88V14.8222L58.5063 14.4489V13.8267L58.962 13.3289L57.5949 9.96889L57.3671 9.09778L58.7342 8.35111L59.3038 7.72889L58.8481 7.23111V6.60889L59.3038 6.36L58.8481 5.86222L58.962 5.24L59.7595 4.36889L59.4177 3.62222L59.9873 3Z" fill="#84240C" stroke="#84240C" stroke-width="3" stroke-linecap="round"/>
<path d="M76 29.9167V31H69V29.9167L69.2917 29.7361L69.1458 29.1944L70.4583 27.5694V27.0278L71.0417 26.3056L71.625 23.4167L70.4583 23.0556L70.6042 22.3333L71.3333 21.7917L70.4583 20.7083V19.0833L71.4792 18H73.5208L74.5417 19.0833V20.7083L73.6667 21.7917L74.3958 22.3333L74.5417 23.0556L73.375 23.4167L73.9583 26.3056L74.5417 27.0278V27.5694L75.8542 29.1944L75.7083 29.7361L76 29.9167Z" fill="#202223" stroke="#202223" stroke-width="3" stroke-linecap="round"/>
</svg>
