<svg width="185" height="195" viewBox="0 0 185 195" fill="none" xmlns="http://www.w3.org/2000/svg">
<path d="M9.85083 194.573V169.143H175.149V194.573" stroke="#84240C" stroke-width="10"/>
<path d="M5.22711 122.905V167.987H179.773V122.905H5.22711Z" stroke="#84240C" stroke-width="10"/>
<path d="M100.014 63.9526V109.034H179.773V63.9526H100.014Z" fill="#8F5454" stroke="#84240C" stroke-width="10"/>
<path d="M5.22711 5V50.0814H179.773V5H5.22711Z" fill="#AD796E" stroke="#84240C" stroke-width="10"/>
<path d="M19.0983 161.5V128.813" stroke="#84240C" stroke-width="2"/>
<path d="M28.2735 128.813V161.5" stroke="#84240C" stroke-width="2"/>
<path d="M37.4487 128.813V161.5" stroke="#84240C" stroke-width="2"/>
<path d="M46.6239 128.813V161.5" stroke="#84240C" stroke-width="2"/>
<path d="M55.7991 128.813V161.5" stroke="#84240C" stroke-width="2"/>
<path d="M64.9744 128.813V161.5" stroke="#84240C" stroke-width="2"/>
<path d="M74.1496 128.813V161.5" stroke="#84240C" stroke-width="2"/>
<path d="M83.3248 128.813V161.5" stroke="#84240C" stroke-width="2"/>
<path d="M92.5 128.813V161.5" stroke="#84240C" stroke-width="2"/>
<path d="M101.675 128.813V161.5" stroke="#84240C" stroke-width="2"/>
<path d="M110.85 128.813V161.5" stroke="#84240C" stroke-width="2"/>
<path d="M120.026 128.813V161.5" stroke="#84240C" stroke-width="2"/>
<path d="M129.201 128.813V161.5" stroke="#84240C" stroke-width="2"/>
<path d="M138.376 128.813V161.5" stroke="#84240C" stroke-width="2"/>
<path d="M147.551 128.813V161.5" stroke="#84240C" stroke-width="2"/>
<path d="M156.726 128.813V161.5" stroke="#84240C" stroke-width="2"/>
<path d="M165.902 128.813V161.5" stroke="#84240C" stroke-width="2"/>
<path d="M11.0068 127.529H174.571" stroke="#84240C"/>
<path d="M11.0068 139.088H174.571" stroke="#84240C" stroke-width="2"/>
<path d="M9.85083 162.207H173.415" stroke="#84240C"/>
<path d="M11.0068 151.803H174.571" stroke="#84240C" stroke-width="2"/>
<path d="M35.2814 87.0713L58.4 87.0713" stroke="#D6A164" stroke-width="5" stroke-linecap="round"/>
<path d="M128.912 87.0713L152.031 87.0713" stroke="#D6A164" stroke-width="5" stroke-linecap="round"/>
<path d="M5.22711 63.9526V109.034H84.9864V63.9526H5.22711Z" fill="#8F5454" stroke="#84240C" stroke-width="10"/>
<path d="M34.1254 87.0713L57.2441 87.0713" stroke="#D6A164" stroke-width="5" stroke-linecap="round"/>
<path d="M71.1152 28.1187H113.307" stroke="#D6A164" stroke-width="5" stroke-linecap="round"/>
</svg>
