<svg width="192" height="629" viewBox="0 0 192 629" fill="none" xmlns="http://www.w3.org/2000/svg">
<path d="M192 627H2V159.882M2 159.882H192M2 159.882C14.2635 50.0706 25.9307 11.5984 59 2H192" stroke="#382E2E" stroke-opacity="0.15" stroke-width="4"/>
<path d="M153.675 2V32.0114L156.825 39.9091L171 50.9659V58.8636L164.7 65.1818L156.825 68.3409L163.125 74.6591L164.7 84.1364V98.3523L158.4 104.67L150.525 120.466L147.375 125.205L150.525 131.523L147.375 137.841H133.2H131.625L128.475 131.523L131.625 125.205L128.475 120.466L120.6 104.67L114.3 98.3523V84.1364L115.875 74.6591L122.175 68.3409L114.3 65.1818L108 58.8636V50.9659L122.175 39.9091L125.325 32.0114V2" stroke="#382E2E" stroke-opacity="0.15" stroke-width="4"/>
<path d="M160.438 569.286V623H118.562V569.286L106 544.495L118.562 482.516V391.615L106 370.956L122.75 354.429L110.188 313.11L122.75 259.396L131.125 247H147.875L156.25 259.396L168.812 313.11L156.25 354.429L173 370.956L160.438 391.615V482.516L173 544.495L160.438 569.286Z" stroke="#382E2E" stroke-opacity="0.15" stroke-width="4"/>
</svg>
