<svg width="249" height="187" viewBox="0 0 249 187" fill="none" xmlns="http://www.w3.org/2000/svg">
<path d="M18.6129 41.3619L26.4717 133.186L24.8173 136.495H233.282L232.042 133.186L239.073 41.3619L232.042 19.0264H26.4717L18.6129 41.3619Z" fill="#8F5454" stroke="#382E2E" stroke-width="3"/>
<path d="M138.15 54.5985H119.95L118.709 52.5304L116.641 53.7712L115.814 52.944L116.641 50.8759L114.987 49.635L116.641 47.9806L114.987 45.4988L114.159 43.8443L115.814 41.7762L116.641 40.949L117.882 38.8809L115.814 37.64L117.882 35.9855L119.95 35.1583L121.605 36.3992L122.432 34.331L120.364 33.9174L119.95 32.2629L120.364 30.6085L122.432 29.7812L123.259 28.954H124.914L125.327 27.7131V21.5088H132.772V27.7131L133.186 28.954H134.841L135.668 29.7812L137.736 30.6085L138.15 32.2629L137.736 33.9174L135.668 34.331L136.495 36.3992L138.15 35.1583L140.218 35.9855L142.286 37.64L140.218 38.8809L141.458 40.949L142.286 41.7762L143.94 43.8443L143.113 45.4988L141.458 47.9806L143.113 49.635L141.458 50.8759L142.286 52.944L141.458 53.7712L139.39 52.5304L138.15 54.5985Z" fill="#AD796E" stroke="#382E2E" stroke-width="2"/>
<path d="M196.056 125.859V136.495H187.784V125.859L185.302 120.95L187.784 108.678V90.6783L185.302 86.5875L188.611 83.3149L186.13 75.1334L188.611 64.4974L190.266 62.043H193.575L195.229 64.4974L197.711 75.1334L195.229 83.3149L198.538 86.5875L196.056 90.6783V108.678L198.538 120.95L196.056 125.859Z" fill="#AD796E" stroke="#382E2E" stroke-width="2"/>
<path d="M70.3156 125.742V136.496H62.0432V125.742L59.5615 120.778L62.0432 108.37V90.1703L59.5615 86.0341L62.8704 82.7251L60.3887 74.4527L62.8704 63.6985L64.5249 61.2168H67.8339L69.4884 63.6985L71.9701 74.4527L69.4884 82.7251L72.7973 86.0341L70.3156 90.1703V108.37L72.7973 120.778L70.3156 125.742Z" fill="#AD796E" stroke="#382E2E" stroke-width="2"/>
<path d="M122.846 135.668H136.081L135.254 132.773L137.736 123.673L136.081 121.191L139.39 117.882L134.427 110.851L134.013 102.992L137.736 102.578L142.286 100.097L143.113 98.8557L145.595 97.6149L147.663 98.0285V100.097L146.836 102.165V102.992L148.904 103.406L150.558 101.337V99.683L150.145 97.6149L148.076 95.5468L145.181 93.8923L142.286 93.065L140.218 91.8242L139.39 90.9969L138.563 88.9288L138.977 61.2162L141.872 62.4571L139.39 57.9072H119.537L117.055 62.4571L119.95 61.2162L120.364 88.9288L119.537 90.9969L118.709 91.8242L116.641 93.065L113.746 93.8923L110.851 95.5468L108.782 97.6149V98.0285L108.369 99.683V101.337L110.023 103.406L112.091 102.992V102.165L111.264 100.097V98.0285L113.332 97.6149L115.814 98.8557L116.641 100.097L121.191 102.578L124.914 102.992L124.5 110.851L119.537 117.882L122.846 121.191L121.191 123.673L123.673 132.773L122.846 135.668Z" fill="#AD796E" stroke="#382E2E" stroke-width="2"/>
<path d="M131.532 81.8976L129.463 81.0703L127.395 81.8976V86.861L125.741 87.6883V89.3427L127.395 90.17V92.6517H131.532V90.17L133.186 89.3427V87.6883L131.532 86.861V81.8976Z" fill="black" stroke="#382E2E"/>
<path d="M68.2475 57.9075H64.5249H64.1113L63.2841 56.253L64.1113 54.5985L63.2841 53.3576L61.216 49.2214L59.5615 47.5669V43.8443L59.9751 41.3626L61.6296 39.7081L59.5615 38.8809L57.907 37.2264V35.1583L61.6296 32.2629L62.4568 30.1948V22.336L59.5615 21.5088H72.7973L69.902 22.336V30.1948L70.7292 32.2629L74.4518 35.1583V37.2264L72.7973 38.8809L70.7292 39.7081L72.3837 41.3626L72.7973 43.8443V47.5669L71.1429 49.2214L69.0748 53.3576L68.2475 54.5985L69.0748 56.253L68.2475 57.9075Z" fill="#AD796E" stroke="#382E2E" stroke-width="2"/>
<path d="M193.988 57.9075H190.266H189.852L189.025 56.253L189.852 54.5985L189.025 53.3576L186.957 49.2214L185.302 47.5669V43.8443L185.716 41.3626L187.37 39.7081L185.302 38.8809L183.648 37.2264V35.1583L187.37 32.2629L188.198 30.1948V22.336L185.302 21.5088H198.538L195.643 22.336V30.1948L196.47 32.2629L200.193 35.1583V37.2264L198.538 38.8809L196.47 39.7081L198.125 41.3626L198.538 43.8443V47.5669L196.884 49.2214L194.816 53.3576L193.988 54.5985L194.816 56.253L193.988 57.9075Z" fill="#AD796E" stroke="#382E2E" stroke-width="2"/>
<path d="M20.6811 58.3203H237.419" stroke="#382E2E" stroke-width="3"/>
</svg>
