<svg width="266" height="105" viewBox="0 0 266 105" fill="none" xmlns="http://www.w3.org/2000/svg">
<path d="M92.594 11.12C94.5674 11.12 96.394 11.6 98.074 12.56C99.754 13.52 100.594 14.4667 100.594 15.4C100.594 16.3067 100.221 16.76 99.474 16.76C98.994 16.76 98.1674 16.24 96.994 15.2C96.5407 14.8 95.8874 14.44 95.034 14.12C94.1807 13.8 93.234 13.64 92.194 13.64C90.2207 13.64 88.6207 14.1867 87.394 15.28C86.194 16.3467 85.594 17.8 85.594 19.64C85.594 21.64 87.1407 23.7733 90.234 26.04C91.514 26.9733 92.794 27.9467 94.074 28.96C95.354 29.9733 96.4474 31.1733 97.354 32.56C98.2607 33.9467 98.714 35.4267 98.714 37C98.714 39.96 97.7407 42.2933 95.794 44C93.874 45.7067 91.394 46.56 88.354 46.56C85.314 46.56 82.834 45.7333 80.914 44.08C80.274 43.5467 79.714 42.8933 79.234 42.12C78.7807 41.32 78.554 40.64 78.554 40.08C78.554 38.9867 78.9807 38.44 79.834 38.44C80.1274 38.44 80.3674 38.5467 80.554 38.76C80.7674 38.9467 80.994 39.3067 81.234 39.84C81.5007 40.3733 81.7007 40.7467 81.834 40.96C83.2474 42.9867 85.3274 44 88.074 44C90.2607 44 92.0474 43.3733 93.434 42.12C94.8207 40.84 95.514 39.1867 95.514 37.16C95.514 35.0533 93.9674 32.84 90.874 30.52C89.594 29.56 88.3007 28.5733 86.994 27.56C85.714 26.5467 84.6207 25.3733 83.714 24.04C82.8074 22.68 82.354 21.24 82.354 19.72C82.354 17 83.314 14.8933 85.234 13.4C87.1807 11.88 89.634 11.12 92.594 11.12ZM119.862 27.48C119.862 27.9067 119.729 28.2533 119.462 28.52C119.462 28.5467 119.449 28.5867 119.422 28.64L106.462 43.64H117.342C117.929 43.64 118.222 44.0133 118.222 44.76C118.222 45.1333 118.102 45.48 117.862 45.8C117.649 46.12 117.382 46.28 117.062 46.28H103.182C102.515 46.28 102.182 45.8667 102.182 45.04C102.182 44.6133 102.342 44.24 102.662 43.92L115.502 28.96H106.182C105.889 28.96 105.635 28.84 105.422 28.6C105.235 28.3333 105.142 28.04 105.142 27.72C105.142 27.4 105.262 27.08 105.502 26.76C105.769 26.44 106.062 26.28 106.382 26.28H118.982C119.569 26.28 119.862 26.68 119.862 27.48ZM138.02 37.72C137.913 38.5733 137.86 39.56 137.86 40.68C137.86 41.8 137.966 42.84 138.18 43.8C138.42 44.76 138.54 45.3067 138.54 45.44C138.54 45.76 138.286 46.0267 137.78 46.24C137.3 46.4533 136.9 46.56 136.58 46.56C136.26 46.56 136.02 46.44 135.86 46.2C135.726 45.96 135.606 45.6267 135.5 45.2C135.42 44.7733 135.353 44.3867 135.3 44.04C135.166 43.16 135.1 42.4533 135.1 41.92C133.606 45.0133 131.233 46.56 127.98 46.56C126.22 46.56 124.886 45.9867 123.98 44.84C123.1 43.6933 122.66 42.2 122.66 40.36C122.66 39.3733 123.166 34.8267 124.18 26.72C124.26 26.0533 124.78 25.72 125.74 25.72C126.726 25.72 127.22 25.9867 127.22 26.52C126.206 34.2267 125.7 38.8133 125.7 40.28C125.7 42.7067 126.74 43.92 128.82 43.92C129.886 43.92 130.833 43.6133 131.66 43C132.486 42.3867 133.153 41.56 133.66 40.52C134.566 38.5733 135.18 36.3467 135.5 33.84L136.38 26.72C136.46 26.0533 137.086 25.72 138.26 25.72C139.033 25.72 139.42 25.9867 139.42 26.52L138.02 37.72ZM154.036 28.96H150.036L147.636 49.64C147.103 54.5733 145.596 57.68 143.116 58.96C142.13 59.4933 140.93 59.76 139.516 59.76C138.103 59.76 136.77 59.4533 135.516 58.84C134.236 58.2533 133.596 57.72 133.596 57.24C133.596 56.8933 133.783 56.4933 134.156 56.04C134.503 55.5867 134.85 55.36 135.196 55.36C135.223 55.36 135.41 55.4933 135.756 55.76C136.103 56.0533 136.623 56.3333 137.316 56.6C138.01 56.8933 138.743 57.04 139.516 57.04C140.263 57.04 140.863 56.96 141.316 56.8C141.796 56.64 142.236 56.3067 142.636 55.8C143.036 55.2933 143.356 54.7067 143.596 54.04C143.863 53.4 144.13 52.4533 144.396 51.2C144.743 49.4667 145.183 46.3467 145.716 41.84L147.196 28.96H143.996C143.65 28.96 143.383 28.84 143.196 28.6C143.01 28.36 142.916 28.08 142.916 27.76C142.916 27.4133 143.05 27.08 143.316 26.76C143.583 26.44 143.863 26.28 144.156 26.28H147.516L148.036 21.72C148.49 17.5333 149.383 14.6133 150.716 12.96C151.943 11.4667 153.65 10.72 155.836 10.72C157.036 10.72 158.183 10.8667 159.276 11.16C160.37 11.4533 160.916 11.7733 160.916 12.12C160.916 12.52 160.77 12.9733 160.476 13.48C160.183 13.9867 159.863 14.24 159.516 14.24C159.49 14.24 159.33 14.1733 159.036 14.04C158.156 13.6667 157.21 13.48 156.196 13.48C155.21 13.48 154.423 13.6667 153.836 14.04C153.276 14.4133 152.836 14.84 152.516 15.32C152.223 15.8 151.956 16.4933 151.716 17.4C151.423 18.4667 151.156 20 150.916 22L150.396 26.28H154.316C154.93 26.28 155.236 26.68 155.236 27.48C155.236 27.8267 155.116 28.16 154.876 28.48C154.636 28.8 154.356 28.96 154.036 28.96ZM158.159 46.56C157.759 46.56 157.479 46.5067 157.319 46.4C157.159 46.2933 157.079 46.08 157.079 45.76L161.159 11.56C161.266 10.8667 161.786 10.52 162.719 10.52C163.679 10.52 164.159 10.8 164.159 11.36L160.039 45.56C159.959 46.2267 159.333 46.56 158.159 46.56ZM168.765 41.08C168.765 41.88 169.032 42.56 169.565 43.12C170.125 43.6533 170.858 43.92 171.765 43.92C173.418 43.92 174.818 43.0933 175.965 41.44C177.112 39.76 177.858 37.8667 178.205 35.76C174.792 36.0267 172.365 36.6133 170.925 37.52C169.485 38.4267 168.765 39.6133 168.765 41.08ZM182.005 30.32C182.005 31.04 181.752 32.8267 181.245 35.68C180.765 38.5067 180.525 40.4533 180.525 41.52C180.525 42.5867 180.592 43.4667 180.725 44.16C180.885 44.8533 180.965 45.28 180.965 45.44C180.965 45.76 180.698 46.0267 180.165 46.24C179.632 46.4533 179.125 46.56 178.645 46.56C178.058 46.56 177.765 45.36 177.765 42.96V41.92C176.992 43.44 175.965 44.6 174.685 45.4C173.405 46.1733 172.058 46.56 170.645 46.56C169.232 46.56 168.032 46.1333 167.045 45.28C166.085 44.4267 165.605 43.2267 165.605 41.68C165.605 39.4667 166.618 37.6 168.645 36.08C170.698 34.56 174.058 33.6533 178.725 33.36C178.858 32.56 178.925 31.7333 178.925 30.88C178.925 29.2267 177.698 28.4 175.245 28.4C174.018 28.4 172.765 28.6533 171.485 29.16C170.232 29.6667 169.578 29.92 169.525 29.92C169.178 29.92 168.898 29.72 168.685 29.32C168.472 28.8933 168.365 28.4533 168.365 28C168.365 27.5467 169.192 27.0533 170.845 26.52C172.498 25.9867 174.138 25.72 175.765 25.72C177.392 25.72 178.832 26.0933 180.085 26.84C181.365 27.56 182.005 28.72 182.005 30.32ZM201.484 31.88L201.564 31.28C201.564 29.3333 200.364 28.36 197.964 28.36C195.991 28.36 194.391 29.2667 193.164 31.08C191.937 32.8667 191.137 35.24 190.764 38.2L189.844 45.56C189.764 46.2267 189.137 46.56 187.964 46.56C187.564 46.56 187.284 46.5067 187.124 46.4C186.964 46.2933 186.884 46.08 186.884 45.76L189.164 26.72C189.244 26.0533 189.764 25.72 190.724 25.72C191.684 25.72 192.164 25.9867 192.164 26.52L191.804 29.32H192.044C193.697 26.92 195.804 25.72 198.364 25.72C200.391 25.72 201.937 26.2 203.004 27.16C204.097 28.0933 204.644 29.3867 204.644 31.04C204.644 31.28 204.031 36.12 202.804 45.56C202.724 46.2267 202.071 46.56 200.844 46.56C200.151 46.56 199.804 46.2933 199.804 45.76L201.484 31.88ZM224.897 37.72C224.791 38.8667 224.737 39.9333 224.737 40.92C224.737 41.88 224.857 42.84 225.097 43.8C225.337 44.76 225.457 45.3067 225.457 45.44C225.457 45.76 225.204 46.0267 224.697 46.24C224.191 46.4533 223.777 46.56 223.457 46.56C223.137 46.56 222.897 46.44 222.737 46.2C222.604 45.96 222.484 45.64 222.377 45.24C222.297 44.8133 222.231 44.4133 222.177 44.04C222.151 43.64 222.111 43.2267 222.057 42.8C222.031 42.3467 222.004 42.0533 221.977 41.92C221.364 43.36 220.377 44.4933 219.017 45.32C217.684 46.1467 216.217 46.56 214.617 46.56C213.017 46.56 211.604 45.9467 210.377 44.72C209.177 43.4933 208.577 41.6933 208.577 39.32C208.577 36.76 209.191 34.4 210.417 32.24C211.137 30.9867 212.031 29.8933 213.097 28.96C214.191 28 215.617 27.2267 217.377 26.64C219.137 26.0267 221.124 25.72 223.337 25.72L225.137 11.44C225.164 10.8267 225.777 10.52 226.977 10.52C227.724 10.52 228.097 10.8267 228.097 11.44L224.897 37.72ZM222.097 28.2C219.164 28.2 216.724 29.2533 214.777 31.36C212.831 33.4667 211.857 36 211.857 38.96C211.857 40.3733 212.191 41.56 212.857 42.52C213.524 43.4533 214.497 43.92 215.777 43.92C219.351 43.92 221.551 40.56 222.377 33.84L223.057 28.32C222.871 28.24 222.551 28.2 222.097 28.2ZM231.948 46.56C231.548 46.56 231.268 46.5067 231.108 46.4C230.948 46.2933 230.868 46.08 230.868 45.76L233.148 26.72C233.228 26.0533 233.748 25.72 234.708 25.72C235.668 25.72 236.148 25.9867 236.148 26.52L233.828 45.56C233.748 46.2267 233.122 46.56 231.948 46.56ZM237.748 18.32C237.748 19.9733 236.988 20.8 235.468 20.8C234.268 20.8 233.668 20.2933 233.668 19.28C233.668 17.6533 234.428 16.84 235.948 16.84C237.148 16.84 237.748 17.3333 237.748 18.32ZM242.554 41.08C242.554 41.88 242.821 42.56 243.354 43.12C243.914 43.6533 244.647 43.92 245.554 43.92C247.207 43.92 248.607 43.0933 249.754 41.44C250.901 39.76 251.647 37.8667 251.994 35.76C248.581 36.0267 246.154 36.6133 244.714 37.52C243.274 38.4267 242.554 39.6133 242.554 41.08ZM255.794 30.32C255.794 31.04 255.541 32.8267 255.034 35.68C254.554 38.5067 254.314 40.4533 254.314 41.52C254.314 42.5867 254.381 43.4667 254.514 44.16C254.674 44.8533 254.754 45.28 254.754 45.44C254.754 45.76 254.487 46.0267 253.954 46.24C253.421 46.4533 252.914 46.56 252.434 46.56C251.847 46.56 251.554 45.36 251.554 42.96V41.92C250.781 43.44 249.754 44.6 248.474 45.4C247.194 46.1733 245.847 46.56 244.434 46.56C243.021 46.56 241.821 46.1333 240.834 45.28C239.874 44.4267 239.394 43.2267 239.394 41.68C239.394 39.4667 240.407 37.6 242.434 36.08C244.487 34.56 247.847 33.6533 252.514 33.36C252.647 32.56 252.714 31.7333 252.714 30.88C252.714 29.2267 251.487 28.4 249.034 28.4C247.807 28.4 246.554 28.6533 245.274 29.16C244.021 29.6667 243.367 29.92 243.314 29.92C242.967 29.92 242.687 29.72 242.474 29.32C242.261 28.8933 242.154 28.4533 242.154 28C242.154 27.5467 242.981 27.0533 244.634 26.52C246.287 25.9867 247.927 25.72 249.554 25.72C251.181 25.72 252.621 26.0933 253.874 26.84C255.154 27.56 255.794 28.72 255.794 30.32Z" fill="black"/>
<path d="M3.5144 64.0865V55.7578H57.6511V64.0865" stroke="#1B9F30" stroke-width="4"/>
<path d="M2 40.6152V55.3798H59.1654V40.6152H2Z" stroke="#1B9F30" stroke-width="4"/>
<path d="M33.0432 21.3076V36.0722H59.1651V21.3076H33.0432Z" stroke="#1B9F30" stroke-width="4"/>
<path d="M2 2V16.7646H59.1654V2H2Z" stroke="#1B9F30" stroke-width="4"/>
<path d="M7.14478 41.4443V54.5924" stroke="#1B9F30" stroke-width="2"/>
<path d="M12.2896 41.4443V54.5924" stroke="#1B9F30" stroke-width="2"/>
<path d="M17.4348 41.4443V54.5924" stroke="#1B9F30" stroke-width="2"/>
<path d="M22.5796 41.4443V54.5924" stroke="#1B9F30" stroke-width="2"/>
<path d="M27.7244 41.4443V54.5924" stroke="#1B9F30" stroke-width="2"/>
<path d="M32.8691 41.4443V54.5924" stroke="#1B9F30" stroke-width="2"/>
<path d="M38.0142 41.4443V54.5924" stroke="#1B9F30" stroke-width="2"/>
<path d="M43.1592 41.4443V54.5924" stroke="#1B9F30" stroke-width="2"/>
<path d="M48.304 41.4443V54.5924" stroke="#1B9F30" stroke-width="2"/>
<path d="M53.4487 41.4443V54.5924" stroke="#1B9F30" stroke-width="2"/>
<path d="M58.5938 41.4443V54.5924" stroke="#1B9F30" stroke-width="2"/>
<path d="M3.71484 41.4443H57.2837" stroke="#1B9F30"/>
<path d="M3.14331 46.0166H58.5937" stroke="#1B9F30" stroke-width="2"/>
<path d="M3.71484 54.5918H57.2837" stroke="#1B9F30"/>
<path d="M3.14331 50.0186H58.5937" stroke="#1B9F30" stroke-width="2"/>
<path d="M11.843 28.8789L19.4146 28.8789" stroke="#1B9F30" stroke-width="5" stroke-linecap="round"/>
<path d="M42.5081 28.8789L50.0796 28.8789" stroke="#1B9F30" stroke-width="5" stroke-linecap="round"/>
<path d="M2 21.3076V36.0722H28.1219V21.3076H2Z" stroke="#1B9F30" stroke-width="4"/>
<path d="M11.4644 28.8789L19.0359 28.8789" stroke="#1B9F30" stroke-width="5" stroke-linecap="round"/>
<path d="M23.5789 9.57129H37.397" stroke="#1B9F30" stroke-width="5" stroke-linecap="round"/>
<path d="M51.5816 79.9116C53.2749 79.9116 54.6216 80.4116 55.6216 81.4116C56.1016 81.8916 56.3416 82.2649 56.3416 82.5316C56.3416 82.6649 56.2282 82.8116 56.0016 82.9716C55.7882 83.1182 55.6082 83.1916 55.4616 83.1916C55.3282 83.1916 55.1682 83.0849 54.9816 82.8716C54.8082 82.6582 54.6082 82.4249 54.3816 82.1716C54.1682 81.9049 53.8082 81.6649 53.3016 81.4516C52.7949 81.2382 52.1549 81.1316 51.3816 81.1316C50.6216 81.1316 49.8882 81.3582 49.1816 81.8116C48.4882 82.2649 47.9216 82.8449 47.4816 83.5516C47.0416 84.2449 46.6682 85.0316 46.3616 85.9116C45.8149 87.4982 45.5416 89.1449 45.5416 90.8516C45.5416 92.3449 45.8682 93.5982 46.5216 94.6116C46.8549 95.1316 47.3082 95.5449 47.8816 95.8516C48.4682 96.1449 49.1416 96.2916 49.9016 96.2916C51.5016 96.2916 52.8282 95.7182 53.8816 94.5716C53.9216 94.5316 54.0082 94.4249 54.1416 94.2516C54.3816 93.9049 54.5882 93.7316 54.7616 93.7316C54.9349 93.7316 55.0882 93.7916 55.2216 93.9116C55.3549 94.0182 55.4216 94.1382 55.4216 94.2716C55.4216 94.4049 55.3749 94.5449 55.2816 94.6916C54.6682 95.6516 53.8816 96.3849 52.9216 96.8916C51.9749 97.3849 50.9216 97.6316 49.7616 97.6316C47.7482 97.6316 46.2749 97.0049 45.3416 95.7516C44.4082 94.4982 43.9416 92.8316 43.9416 90.7516C43.9416 88.1382 44.5016 85.7516 45.6216 83.5916C46.1816 82.4849 46.9749 81.5982 48.0016 80.9316C49.0282 80.2516 50.2216 79.9116 51.5816 79.9116ZM62.6642 87.2116C63.9042 87.2116 64.8642 87.6449 65.5442 88.5116C66.2376 89.3782 66.5842 90.4382 66.5842 91.6916C66.5842 93.3449 66.0909 94.7516 65.1042 95.9116C64.1309 97.0582 62.8642 97.6316 61.3042 97.6316C60.0642 97.6316 59.1042 97.2116 58.4242 96.3716C57.7576 95.5182 57.4109 94.4649 57.3842 93.2116C57.3842 91.7582 57.7909 90.4249 58.6042 89.2116C59.0176 88.6116 59.5709 88.1316 60.2642 87.7716C60.9709 87.3982 61.7709 87.2116 62.6642 87.2116ZM60.5442 89.1916C59.9842 89.6716 59.5842 90.2516 59.3442 90.9316C59.1042 91.5982 58.9842 92.3716 58.9842 93.2516C58.9842 94.1182 59.1909 94.8582 59.6042 95.4716C60.0176 96.0849 60.6842 96.3916 61.6042 96.3916C62.5376 96.3916 63.3442 95.9449 64.0242 95.0516C64.7042 94.1582 65.0442 93.1516 65.0442 92.0316C65.0442 90.9116 64.8309 90.0382 64.4042 89.4116C63.9776 88.7716 63.3642 88.4516 62.5642 88.4516C61.7776 88.4516 61.1042 88.6982 60.5442 89.1916ZM68.3227 104.352C67.9627 104.352 67.7827 104.218 67.7827 103.952L69.7827 87.7116C69.8227 87.5116 69.9093 87.3782 70.0427 87.3116C70.1893 87.2449 70.4293 87.2116 70.7627 87.2116C71.096 87.2116 71.2627 87.3449 71.2627 87.6116L71.1227 89.0316C71.9893 87.8182 73.0693 87.2116 74.3627 87.2116C75.2293 87.2116 75.9627 87.5182 76.5627 88.1316C77.176 88.7449 77.4827 89.6449 77.4827 90.8316C77.4827 92.1249 77.1693 93.3116 76.5427 94.3916C76.196 95.0182 75.756 95.5649 75.2227 96.0316C74.6893 96.4982 73.9827 96.8849 73.1027 97.1916C72.2227 97.4849 71.2293 97.6316 70.1227 97.6316L69.2827 103.852C69.2427 104.185 68.9227 104.352 68.3227 104.352ZM70.7627 96.3916C72.216 96.3916 73.4293 95.8649 74.4027 94.8116C75.376 93.7582 75.8627 92.4982 75.8627 91.0316C75.8627 90.3249 75.696 89.7316 75.3627 89.2516C75.0293 88.7716 74.5427 88.5316 73.9027 88.5316C72.076 88.5316 70.9693 90.2116 70.5827 93.5716L70.2627 96.3516C70.3693 96.3782 70.536 96.3916 70.7627 96.3916ZM87.5364 87.2116C87.7231 87.2116 87.8431 87.2382 87.8964 87.2916C87.9631 87.3449 87.9964 87.4516 87.9964 87.6116L84.8364 99.1716C84.1697 101.612 83.1631 103.165 81.8164 103.832C81.2831 104.085 80.6697 104.212 79.9764 104.212C79.2831 104.212 78.6164 104.065 77.9764 103.772C77.3231 103.478 76.9964 103.212 76.9964 102.972C76.9964 102.785 77.0897 102.578 77.2764 102.352C77.4631 102.138 77.6431 102.032 77.8164 102.032L78.0764 102.232C78.2497 102.378 78.5097 102.518 78.8564 102.652C79.2164 102.798 79.6764 102.872 80.2364 102.872C80.8097 102.872 81.3097 102.712 81.7364 102.392C82.6031 101.738 83.4697 99.5382 84.3364 95.7916C83.2831 97.0182 82.3764 97.6316 81.6164 97.6316C81.2031 97.6316 80.9631 97.3782 80.8964 96.8716L79.6364 87.6716C79.6364 87.3649 79.8697 87.2116 80.3364 87.2116C80.6297 87.2116 80.8231 87.2649 80.9164 87.3716C81.0231 87.4649 81.0964 87.6649 81.1364 87.9716L82.2564 96.2316C82.7497 96.0716 83.3231 95.5849 83.9764 94.7716C84.6297 93.9449 85.0897 93.0249 85.3564 92.0116L86.4964 87.7116C86.5897 87.3782 86.9364 87.2116 87.5364 87.2116ZM95.1973 88.5316C94.224 88.5316 93.4173 89.0182 92.7773 89.9916C92.1507 90.9516 91.7573 92.1049 91.5973 93.4516L91.1373 97.1316C91.0973 97.4649 90.784 97.6316 90.1973 97.6316C89.9973 97.6316 89.8573 97.6049 89.7773 97.5516C89.6973 97.4982 89.6573 97.3916 89.6573 97.2316L90.7973 87.7116C90.8373 87.3782 91.0973 87.2116 91.5773 87.2116C92.0573 87.2116 92.2973 87.3449 92.2973 87.6116L92.0973 89.1116H92.1973C92.5707 88.4982 93.0573 88.0049 93.6573 87.6316C94.2573 87.2582 94.884 87.0716 95.5373 87.0716C95.924 87.0716 96.1173 87.2116 96.1173 87.4916C96.1173 87.7716 96.0573 87.9916 95.9373 88.1516C95.764 88.4049 95.5173 88.5316 95.1973 88.5316ZM97.7364 97.6316C97.5364 97.6316 97.3964 97.6049 97.3164 97.5516C97.2364 97.4982 97.1964 97.3916 97.1964 97.2316L98.3364 87.7116C98.3764 87.3782 98.6364 87.2116 99.1164 87.2116C99.5964 87.2116 99.8364 87.3449 99.8364 87.6116L98.6764 97.1316C98.6364 97.4649 98.3231 97.6316 97.7364 97.6316ZM100.636 83.5116C100.636 84.3382 100.256 84.7516 99.4964 84.7516C98.8964 84.7516 98.5964 84.4982 98.5964 83.9916C98.5964 83.1782 98.9764 82.7716 99.7364 82.7716C100.336 82.7716 100.636 83.0182 100.636 83.5116ZM108.299 88.4516C106.833 88.4516 105.613 88.9782 104.639 90.0316C103.666 91.0849 103.179 92.3516 103.179 93.8316C103.179 94.5382 103.346 95.1316 103.679 95.6116C104.013 96.0782 104.499 96.3116 105.139 96.3116C106.926 96.3116 108.026 94.6316 108.439 91.2716L108.779 88.5116C108.686 88.4716 108.526 88.4516 108.299 88.4516ZM107.879 95.9716C107.439 96.5716 106.973 96.9982 106.479 97.2516C105.986 97.5049 105.339 97.6316 104.539 97.6316C103.753 97.6316 103.053 97.3249 102.439 96.7116C101.839 96.0982 101.539 95.1982 101.539 94.0116C101.539 92.7316 101.846 91.5516 102.459 90.4716C102.819 89.8449 103.266 89.2982 103.799 88.8316C104.346 88.3516 105.059 87.9649 105.939 87.6716C106.819 87.3649 107.766 87.2116 108.779 87.2116C109.806 87.2116 110.319 87.5049 110.319 88.0916L108.919 99.1716C108.719 100.772 108.273 102.012 107.579 102.892C106.899 103.772 105.806 104.212 104.299 104.212C103.726 104.212 103.153 104.138 102.579 103.992C102.006 103.845 101.559 103.678 101.239 103.492C100.919 103.305 100.759 103.118 100.759 102.932C100.759 102.758 100.813 102.538 100.919 102.272C101.039 102.018 101.186 101.892 101.359 101.892C101.373 101.892 101.426 101.925 101.519 101.992C101.626 102.072 101.766 102.158 101.939 102.252C102.113 102.358 102.313 102.458 102.539 102.552C103.073 102.805 103.699 102.932 104.419 102.932C105.153 102.932 105.746 102.738 106.199 102.352C106.653 101.965 107.006 101.285 107.259 100.312C107.513 99.3516 107.719 97.9049 107.879 95.9716ZM119.868 90.2916L119.908 89.9916C119.908 89.0182 119.308 88.5316 118.108 88.5316C117.121 88.5316 116.321 88.9849 115.708 89.8916C115.094 90.7849 114.694 91.9716 114.508 93.4516L114.048 97.1316C114.008 97.4649 113.694 97.6316 113.108 97.6316C112.908 97.6316 112.768 97.6049 112.688 97.5516C112.608 97.4982 112.568 97.3916 112.568 97.2316L114.608 80.1316C114.661 79.7849 114.921 79.6116 115.388 79.6116C115.868 79.6116 116.108 79.7516 116.108 80.0316L115.068 89.0316C115.921 87.8182 117.001 87.2116 118.308 87.2116C119.321 87.2116 120.094 87.4516 120.628 87.9316C121.174 88.3982 121.448 89.0449 121.448 89.8716C121.448 89.9916 121.141 92.4116 120.528 97.1316C120.488 97.4649 120.161 97.6316 119.548 97.6316C119.201 97.6316 119.028 97.4982 119.028 97.2316L119.868 90.2916ZM124.534 87.4916H125.714L126.074 84.4116C126.101 84.2116 126.228 84.0516 126.454 83.9316C126.681 83.8116 126.901 83.7516 127.114 83.7516C127.328 83.7516 127.461 83.7649 127.514 83.7916C127.568 83.8182 127.594 83.8849 127.594 83.9916L127.174 87.4916H129.034C129.341 87.4916 129.494 87.6916 129.494 88.0916C129.494 88.2649 129.434 88.4316 129.314 88.5916C129.194 88.7516 129.054 88.8316 128.894 88.8316H126.994L126.474 93.2116C126.408 93.7449 126.374 94.2649 126.374 94.7716C126.374 95.2782 126.428 95.7716 126.534 96.2516C126.654 96.7316 126.714 97.0049 126.714 97.0716C126.714 97.2316 126.588 97.3649 126.334 97.4716C126.094 97.5782 125.861 97.6316 125.634 97.6316C125.421 97.6316 125.241 97.3716 125.094 96.8516C124.961 96.3182 124.894 95.7716 124.894 95.2116C124.894 94.6382 124.934 93.9716 125.014 93.2116L125.534 88.8316H124.394C124.101 88.8316 123.954 88.6382 123.954 88.2516C123.954 88.0649 124.008 87.8916 124.114 87.7316C124.234 87.5716 124.374 87.4916 124.534 87.4916ZM143.427 78.4516C145.414 78.4516 146.994 78.9849 148.167 80.0516C149.354 81.1049 149.947 82.6582 149.947 84.7116C149.947 86.3649 149.6 87.8916 148.907 89.2916C148.52 90.0516 148.04 90.7182 147.467 91.2916C146.907 91.8516 146.174 92.3116 145.267 92.6716C144.374 93.0182 143.354 93.1916 142.207 93.1916C141.06 93.1916 140.054 93.0249 139.187 92.6916C138.32 92.3582 137.64 91.8982 137.147 91.3116C136.214 90.1649 135.747 88.6982 135.747 86.9116C135.747 85.2582 136.094 83.7382 136.787 82.3516C137.174 81.5916 137.647 80.9316 138.207 80.3716C138.78 79.7982 139.514 79.3382 140.407 78.9916C141.314 78.6316 142.32 78.4516 143.427 78.4516ZM146.207 81.8316C146.5 82.1382 146.647 82.3649 146.647 82.5116C146.647 82.6582 146.56 82.7982 146.387 82.9316C146.214 83.0649 146.074 83.1316 145.967 83.1316C145.874 83.1316 145.767 83.0716 145.647 82.9516C145.527 82.8182 145.4 82.6782 145.267 82.5316C145.147 82.3716 144.94 82.2316 144.647 82.1116C144.367 81.9782 143.98 81.9116 143.487 81.9116C143.007 81.9116 142.534 82.0849 142.067 82.4316C141.614 82.7782 141.267 83.2182 141.027 83.7516C140.534 84.8049 140.287 85.7982 140.287 86.7316C140.287 87.6516 140.487 88.3716 140.887 88.8916C141.287 89.4116 141.887 89.6716 142.687 89.6716C143.14 89.6716 143.54 89.5982 143.887 89.4516C144.247 89.2916 144.507 89.1116 144.667 88.9116C145.107 88.4182 145.394 88.1716 145.527 88.1716C145.674 88.1716 145.807 88.2249 145.927 88.3316C146.047 88.4249 146.107 88.5449 146.107 88.6916C146.107 89.0916 145.747 89.5449 145.027 90.0516C144.307 90.5582 143.5 90.8116 142.607 90.8116C141.354 90.8116 140.44 90.4582 139.867 89.7516C139.294 89.0449 139.007 88.0982 139.007 86.9116C139.007 85.4316 139.347 84.0916 140.027 82.8916C140.374 82.2782 140.86 81.7849 141.487 81.4116C142.114 81.0382 142.894 80.8516 143.827 80.8516C144.774 80.8516 145.567 81.1782 146.207 81.8316ZM143.427 79.3516C142.494 79.3516 141.647 79.5116 140.887 79.8316C140.127 80.1382 139.507 80.5449 139.027 81.0516C138.547 81.5582 138.147 82.1516 137.827 82.8316C137.24 84.0582 136.947 85.4449 136.947 86.9916C136.947 88.5382 137.367 89.8116 138.207 90.8116C139.047 91.7982 140.4 92.2916 142.267 92.2916C143.2 92.2916 144.047 92.1316 144.807 91.8116C145.567 91.4916 146.187 91.0782 146.667 90.5716C147.147 90.0649 147.547 89.4716 147.867 88.7916C148.454 87.5649 148.747 86.2049 148.747 84.7116C148.747 82.9516 148.267 81.6182 147.307 80.7116C146.347 79.8049 145.054 79.3516 143.427 79.3516ZM166.148 84.6716C166.148 83.6982 165.868 82.9382 165.308 82.3916C164.748 81.8316 163.982 81.5516 163.008 81.5516C162.422 81.5516 161.902 81.6582 161.448 81.8716C160.995 82.0849 160.662 82.3116 160.448 82.5516C159.862 83.2316 159.402 83.5716 159.068 83.5716C158.628 83.5716 158.408 83.3316 158.408 82.8516C158.408 82.3716 158.848 81.8116 159.728 81.1716C160.608 80.5316 161.735 80.2116 163.108 80.2116C164.495 80.2116 165.622 80.6049 166.488 81.3916C167.355 82.1649 167.788 83.2182 167.788 84.5516C167.788 86.1916 167.175 87.8182 165.948 89.4316C165.348 90.2182 164.775 90.8916 164.228 91.4516C163.695 92.0116 163.042 92.6516 162.268 93.3716L159.448 95.9716H167.048C167.235 95.9716 167.388 96.0316 167.508 96.1516C167.628 96.2582 167.688 96.4049 167.688 96.5916C167.688 97.0982 167.408 97.3516 166.848 97.3516H157.948C157.375 97.3516 157.088 97.1182 157.088 96.6516C157.088 96.3582 157.188 96.1182 157.388 95.9316L161.248 92.3316C162.022 91.5982 162.662 90.9716 163.168 90.4516C163.675 89.9182 164.175 89.3182 164.668 88.6516C165.655 87.3449 166.148 86.0182 166.148 84.6716ZM172.246 82.7116C172.753 81.9782 173.406 81.3782 174.206 80.9116C175.019 80.4449 175.919 80.2116 176.906 80.2116C177.906 80.2116 178.759 80.3982 179.466 80.7716C180.186 81.1449 180.746 81.6649 181.146 82.3316C181.893 83.6116 182.266 85.1849 182.266 87.0516C182.266 89.0516 181.973 90.9049 181.386 92.6116C181.066 93.5716 180.653 94.4182 180.146 95.1516C179.653 95.8716 178.999 96.4649 178.186 96.9316C177.386 97.3982 176.486 97.6316 175.486 97.6316C174.486 97.6316 173.626 97.4449 172.906 97.0716C172.199 96.6982 171.653 96.1782 171.266 95.5116C170.506 94.2582 170.126 92.6849 170.126 90.7916C170.126 88.7916 170.419 86.9449 171.006 85.2516C171.339 84.2916 171.753 83.4449 172.246 82.7116ZM175.406 96.2916C176.233 96.2916 176.966 96.0582 177.606 95.5916C178.246 95.1116 178.753 94.5249 179.126 93.8316C179.499 93.1249 179.799 92.3116 180.026 91.3916C180.426 89.8182 180.626 88.2116 180.626 86.5716C180.626 85.3049 180.359 84.1849 179.826 83.2116C179.559 82.7049 179.166 82.3049 178.646 82.0116C178.139 81.7049 177.526 81.5516 176.806 81.5516C176.086 81.5516 175.426 81.7716 174.826 82.2116C174.226 82.6516 173.739 83.2049 173.366 83.8716C173.006 84.5382 172.706 85.3049 172.466 86.1716C172.026 87.6916 171.806 89.2782 171.806 90.9316C171.806 94.5049 173.006 96.2916 175.406 96.2916ZM193.023 84.6716C193.023 83.6982 192.743 82.9382 192.183 82.3916C191.623 81.8316 190.857 81.5516 189.883 81.5516C189.297 81.5516 188.777 81.6582 188.323 81.8716C187.87 82.0849 187.537 82.3116 187.323 82.5516C186.737 83.2316 186.277 83.5716 185.943 83.5716C185.503 83.5716 185.283 83.3316 185.283 82.8516C185.283 82.3716 185.723 81.8116 186.603 81.1716C187.483 80.5316 188.61 80.2116 189.983 80.2116C191.37 80.2116 192.497 80.6049 193.363 81.3916C194.23 82.1649 194.663 83.2182 194.663 84.5516C194.663 86.1916 194.05 87.8182 192.823 89.4316C192.223 90.2182 191.65 90.8916 191.103 91.4516C190.57 92.0116 189.917 92.6516 189.143 93.3716L186.323 95.9716H193.923C194.11 95.9716 194.263 96.0316 194.383 96.1516C194.503 96.2582 194.563 96.4049 194.563 96.5916C194.563 97.0982 194.283 97.3516 193.723 97.3516H184.823C184.25 97.3516 183.963 97.1182 183.963 96.6516C183.963 96.3582 184.063 96.1182 184.263 95.9316L188.123 92.3316C188.897 91.5982 189.537 90.9716 190.043 90.4516C190.55 89.9182 191.05 89.3182 191.543 88.6516C192.53 87.3449 193.023 86.0182 193.023 84.6716ZM201.761 87.5716C202.814 87.5716 203.794 87.2582 204.701 86.6316C205.608 86.0049 206.061 85.1649 206.061 84.1116C206.061 83.2716 205.781 82.6382 205.221 82.2116C204.674 81.7716 203.921 81.5516 202.961 81.5516C202.014 81.5516 201.194 81.8516 200.501 82.4516C200.021 82.8516 199.694 83.0516 199.521 83.0516C199.068 83.0516 198.841 82.8449 198.841 82.4316C198.841 82.1649 198.974 81.9116 199.241 81.6716C199.694 81.2049 200.274 80.8449 200.981 80.5916C201.688 80.3382 202.414 80.2116 203.161 80.2116C204.494 80.2116 205.594 80.5516 206.461 81.2316C207.341 81.9116 207.781 82.8716 207.781 84.1116C207.781 85.0049 207.508 85.8116 206.961 86.5316C206.414 87.2382 205.688 87.7649 204.781 88.1116C205.661 88.4316 206.394 88.9916 206.981 89.7916C207.581 90.5916 207.881 91.4516 207.881 92.3716C207.881 94.0916 207.308 95.3982 206.161 96.2916C205.028 97.1849 203.528 97.6316 201.661 97.6316C200.341 97.6316 199.168 97.2382 198.141 96.4516C197.128 95.6649 196.621 94.8449 196.621 93.9916C196.621 93.7782 196.681 93.6116 196.801 93.4916C196.934 93.3716 197.134 93.3116 197.401 93.3116C197.668 93.3116 197.841 93.4382 197.921 93.6916C198.281 94.5049 198.801 95.1316 199.481 95.5716C200.174 95.9982 200.968 96.2116 201.861 96.2116C203.088 96.2116 204.121 95.8649 204.961 95.1716C205.814 94.4782 206.241 93.5582 206.241 92.4116C206.241 91.2516 205.801 90.3782 204.921 89.7916C204.041 89.1916 202.954 88.8916 201.661 88.8916C201.474 88.8916 201.314 88.8316 201.181 88.7116C201.048 88.5916 200.981 88.4382 200.981 88.2516C200.981 87.7982 201.241 87.5716 201.761 87.5716Z" fill="black"/>
</svg>
