<svg width="1081" height="451" viewBox="0 0 1081 451" fill="none" xmlns="http://www.w3.org/2000/svg">
<path d="M0 77.283V49.5V0L6 3L12.5 9.5H17.5265H28L35.5 14.5H40H49L57.5 19.5H65.5L70.106 12L75.5 9.5C77.3333 10 81.4 11.2 83 12C84.6 12.8 87.8785 17.3333 89.3178 19.5L106.844 16.5C110.23 17.1667 117.3 18.7 118.5 19.5C119.7 20.3 129.333 22.1667 134 23H155C158 25.3333 164.635 30.6 167.176 33C170.352 36 177 38 178.5 40.5C180 43 190 46 190 47C190 48 195.999 53.5 199.5 55C202.301 56.2 200.667 59.5 199.5 61L205.5 68.3527L207.5 75L210 84.5L214.5 94.5V98.5L218 105L220.5 108L223.5 117.5L229 129.5V132V147.5L235.5 156.5V171.5L240.5 191.5V202C244.667 203.333 253 206.3 253 207.5C253 208.7 254.996 218 255.994 222.5L265.094 230.5L274.194 239.379L288.35 245.333L309.247 252.03L315.314 254.511L332.167 256.495L347.334 257.488L354.5 242.852C355.203 240.206 357.249 234.914 359.805 234.914C362.361 234.914 367.333 228.305 369.5 225L380.5 218.5L389.5 215L398.565 210.5V202L405.643 191.5H417.5C419.727 190 424.181 186.5 424.181 184.5C424.181 182.5 428.226 173 430.248 168.5H438.337L440.5 180.5L433.955 184.5L430.248 191.5L420.5 200L413.733 207.5L408.003 210.5L405.643 215L402 222.5H398.565L392.498 225L386.769 230.5L378.5 233L372.5 239.379L369.5 245.333L365.872 260.96H375.309C379.129 260.299 387.915 258.976 392.498 258.976H398.565L408.003 262.201L413.733 260.96L430.248 256.495C431.484 257.322 434.832 258.976 438.337 258.976C441.842 258.976 452.381 257.984 457.212 257.488L485.187 258.976L493.613 257.488L499.006 256.495L514.173 258.976H523.61L531.025 256.495L539.452 253.519H547.541L557.652 251.286L561.36 245.333L571.134 242.852H576.527L582.517 245.333L589.335 244.34L593.653 247.069L595.739 249.55L599.783 253.519L610.906 257.488L618.658 260.96L626.747 262.697L634.162 260.96H641.914H648.992L657.081 258.976L663.148 257.488V251.286L667.867 247.069L677.641 240.619L679.664 237.147L683.371 234.914L688.764 229.457V224.495L693.82 221.767L706.291 218.294L715.054 221.767L726.176 218.294L733.254 221.767L744.377 218.294L756.848 215.813H762.915L772.015 209.612L777.745 204.65L780.441 201.426L782.801 195.968L786.672 193.24L785.435 190.263L791.227 188.03H793.249L798.305 178.604L807.068 172.154L816.5 171L826.28 169.5H836L848 167L859 168.5L867 167L873 171L882.5 175L878.5 183L867 176.5L855 172.154H842L831.673 176.5L820.55 175.5L811.787 178.604L802.686 181.581V188.03L798.305 191.751L795.608 195.968L793.249 201.426L798.305 206.387L793.249 209.612L788.53 210.852V215.813L782.801 218.294L778.419 221.767V224.495L772.015 226.976L765.274 229.457L759.544 234.914V237.147L756.848 240.619H749.096L744.377 237.147H739.321L730.221 234.914L722.806 231.193L712.694 229.457L709.998 234.914L706.291 237.147L701.909 240.619L696.179 244.34L693.82 251.286H685.394L679.664 257.488L683.371 260.96L688.764 262.697L693.82 266.418C695.28 267.162 698.943 268.898 701.909 269.891C705.616 271.131 705.616 270.387 709.998 270.387C713.503 270.387 714.829 270.056 715.054 269.891C719.323 268.898 728.334 266.914 730.221 266.914C732.108 266.914 737.074 266.583 739.321 266.418L749.096 266.914L756.848 268.65L772.015 275.596L774.711 276.34L782.801 279.565L791.227 272.867V270.387L795.608 266.914L798.305 258.976L795.608 256.495L791.227 253.519L788.53 245.333L791.227 242.852L795.608 237.147L798.305 234.914V229.457H805.046L807.068 231.193L805.046 237.147L802.686 242.852V245.333V249.55V253.519V258.976L808.416 260.96L811.787 262.697H820.55L826.28 258.976V253.519V245.333L823.583 240.619L826.28 237.147L823.583 229.457H826.28L831.673 240.619V249.55L834.369 256.495L831.673 260.96H843.469V264.681L826.28 266.914H818.865H811.787L809.764 268.65L808.416 272.867L802.686 275.596V279.565L811.787 283.038V285.022L808.416 288.495H802.686L791.227 285.022H778.419L762.915 283.038L753.477 279.565L744.377 275.596L733.254 272.867L722.806 276.34L712.694 277.333L709.998 283.038L720.447 290.976L736.962 302.139L749.096 309.581L765.274 314.046L771.5 317L763 319.5L749.096 319.999L741.681 317.767L720.447 304.371L709.998 297.922L693.82 285.022L688.764 279.565L683.371 277.333H677.641L669.889 279.565L663.148 277.333L657.081 275.596H651.689L648.992 279.565L644.274 281.053L641.914 275.596H630.792L615.625 272.867L599.783 270.387L589.335 264.681L581.246 270.387H576.527L571.134 272.867H564.73L554.619 275.596H531.025L523.61 279.565H517.88L510.128 283.038L504.061 279.565H493.613H490.242C487.883 280.723 482.693 283.038 480.805 283.038C478.918 283.038 477.322 280.723 476.761 279.565H470.02H457.212H438.337L433.955 283.038L424.181 288.495L413.733 285.022L405.643 288.495L398.565 293.457L386.769 290.976L365.872 288.495L359.805 293.457L341.941 288.495L332.167 285.022H318.685L309.247 279.565L298.799 275.596L288.35 272.867H280.261H269.813H265.094L255.994 266.914L248.579 264.681L235.5 254.511L228.693 247.5L225 239.379L213.189 218.5C210.792 216.333 205.8 211.7 205 210.5C204.2 209.3 201 203 199.5 200L192.5 176L195.999 168.5C195.166 165.167 193.3 158.1 192.5 156.5C191.7 154.9 190.5 151.833 190 150.5L187 142L184.5 137C185.333 133.833 187 127.1 187 125.5V117.5V110L182.5 105L177 96.5L173.5 88V84.5V79L167.176 70.8333L146.279 68.3527L125.382 63.8876L106.844 70.8333L89.3178 77.283H78.5323L70.106 81.0039H61.3428L54.6018 77.283H38.0865L17.5265 81.0039L0 77.283Z" fill="#84240C" fill-opacity="0.1"/>
<path d="M775.76 320.793L771.487 319.083L765.864 320.768L767.03 323.971L770.846 326.156L776.956 328.607L781.853 331.498L785.318 335.736L789.907 339.29L791.721 348.802L792.74 356.13L797.73 365.311L801.483 371.094L804.222 378.621L810.533 385.397L816.493 394.225L822.627 400.516L827.812 404.953L830.262 407.91L837.937 410.89L844.179 412.193L849.47 411.642L855.603 414.909L860.786 416.321L868.24 417.183L869.937 416.565L872.12 415.771L872.826 417.713L881.316 417.647L884.294 419.038L888.174 417.626L893.797 417.229L901.647 417.671L906.497 415.906L912.514 412.066L916.925 412.11L924.2 409.462L927.352 408.315L930.747 407.079L937.007 403.151L940.842 400.106L946.662 397.988L951.224 394.677L953.339 391.433L951.13 385.364L947.797 379.978L944.774 376.954L946.029 375.122L942.299 370.156L936.21 365.499L935.415 363.314L934.885 361.857L928.286 353.536L925.218 348.879L925.37 345.524L922.832 342.324L920.736 340.337L917.955 337.225L914.227 335.283L913.344 332.855L912.548 330.67L904.936 324.092L902.355 322.282L898.935 319.677L894.038 316.786L889.825 315.02L884.289 312.636L879.811 310.142L874.782 308.398L870.195 307.867L865.343 306.609L861.706 307.933L855.464 306.63L852.312 307.778L848.674 309.102L841.993 309.609L838.841 310.756L834.476 312.345L826.473 315.258L822.108 316.846L815.008 316.956L805.861 322.76L794.463 326.908L792.899 329.402L789.855 328.585L784.958 325.694L780.546 322.626L775.76 320.793Z" stroke="#1B9F30" stroke-opacity="0.1" stroke-width="4"/>
<path d="M793.721 333.559L802.847 337.824M802.847 337.824L814.041 344.122M802.847 337.824C807.046 381.792 824.336 397.236 872.796 413.889M814.041 344.122L838.393 355.276M814.041 344.122C848.375 324.97 868.657 322.136 907.021 333.783M871.836 370.593L877.577 373.765M871.836 370.593C893.979 360.186 906.701 359.004 930.035 366.467M871.836 370.593L838.393 355.276M949.377 392.459L925.47 390.539L914.595 388.343M914.595 388.343C924.277 378.227 930.031 375.852 940.962 378.345M914.595 388.343L908.863 387.186M903.132 386.029L897.841 384.961L877.577 373.765M903.132 386.029C905.162 381.983 907.499 380.115 913.876 377.519M903.132 386.029L908.863 387.186M908.863 387.186C906.978 392.597 907.135 394.966 909.924 397.812M877.577 373.765C877.026 387.599 880.911 394.206 891.351 405.03M838.393 355.276C869.68 342.063 887.357 340.622 919.121 348.274M838.393 355.276C841.913 389.107 859.885 398.812 892.125 416.014" stroke="#1B9F30" stroke-opacity="0.1" stroke-width="2"/>
<path d="M445.052 167.526L440.479 169.248L441.228 173.566L442.283 173.202L445.978 171.93L449.141 170.398L451.685 168.785L452.494 170.277L454.562 174.141L455.311 178.458L458.374 184.784L460.724 190.322L463.666 193.294L466.885 197.499L469.836 201.354L471.359 203.634L474.92 206.688L478.832 209.474L482.025 211.031L485.218 212.589L489.653 214.752L493.547 215.773L494.442 217.088L496.394 218.04L499.033 217.131L500.097 217.65L506.025 219.004L509.218 220.561L512.043 220.622L514.596 219.89L517.611 221.361L523.093 222.278L525.827 222.075L527.779 223.026L529.713 222.213L532.006 222.014L536.073 222.68L538.984 222.563L541.81 222.623L543.938 223.661L545.427 222.411L547.802 221.593L551.419 221.381L557.519 222.38L559.185 221.216L563.321 219.939L564.74 220.632L565.346 219.39L568.513 218.299L572.139 218.97L574.523 219.035L575.128 217.793L577.503 216.975L580.233 216.33L582.959 215.244L588.423 214.396L589.133 214.742L589.652 213.677L595.108 211.946L598.98 210.761L602.42 210.462L605.4 208.402L608.044 207.935L611.129 207.463L612.794 206.299L613.227 205.412L617.004 203.521L619.293 202.881L624.13 201.068L626.414 199.986L627.729 199.09L624.168 196.036L621.676 193.942L616.869 189.841L615.437 187.825L614.186 186.336L609.384 182.676L607.861 180.396L606.247 177.853L601.89 174.63L599.22 172.449L598.056 170.783L595.564 168.69L592.626 166.159L592.081 164.575L589.065 163.104L587.455 161.002L586.551 158.804L581.939 156.554L580.334 154.893L577.309 152.54L575.358 151.588L574.804 149.122L572.498 147.997L563.983 143.844L559.903 141.854L556.519 138.886L553.339 138.653L549.969 137.009L546.776 135.452L543.76 133.981L540.39 132.337L531.01 129.958L526.575 127.795L524.801 126.93L521.27 126.964L517.74 126.999L512.254 125.641L507.754 125.862L504.392 125.101L498.569 125.335L493.014 125.919L487.727 126.854L481.838 129.472L475.604 132.799L470.425 135.763L465.614 140.224L461.34 145.386L459.242 147.437L458.204 149.566L454.57 157.016L453.207 162.061L451.563 165.431L448.833 166.076L445.052 167.526Z" stroke="#1B9F30" stroke-opacity="0.1" stroke-width="4"/>
<path d="M509.896 128.224C480.385 136.142 466.666 143.555 452.55 167.01L458.46 166.599M458.46 166.599L462.797 172.564M458.46 166.599L462.778 165.85M492.106 212.874C472.937 198.646 464.937 190.129 462.797 172.564M462.797 172.564C479.87 195.544 496.843 204.451 526.519 220.655M462.778 165.85C489.729 191.758 508.071 202.137 540.819 220.602M462.778 165.85L472.309 165.668M472.309 165.668C485.057 145.724 505.106 142.837 536.176 134.673M472.309 165.668L481.853 166.81M481.853 166.81C511.054 149.248 533.07 150.046 571.996 150.826M481.853 166.81C506.546 190.302 523.544 200.101 552.63 218.897M481.853 166.81L501.046 170.681M501.046 170.681C504.046 179.059 508.37 182.486 517.722 187.817M501.046 170.681L514.125 172.229M514.125 172.229C514.753 168.061 515.626 165.73 519.317 161.585M514.125 172.229L519.252 172.973M519.252 172.973C544.39 153.131 559.345 160.04 585.634 164.285M519.252 172.973C550.508 211.275 552.411 204.684 567.768 214.423M519.252 172.973L538.458 178.168M538.458 178.168C538.674 183.568 541.126 186.471 546.623 191.593M538.458 178.168L551.555 181.481M551.555 181.481C557.513 195.12 566.016 199.71 579.454 208.923M551.555 181.481L558.815 183.705M558.815 183.705C569.718 168.985 578.74 172.511 593.124 171.891M558.815 183.705L578.367 188.19M578.367 188.19C584.113 200.308 588.736 205.302 603.696 205.594M578.367 188.19C584.081 181.87 588.668 180.377 598.143 179.609M578.367 188.19L601.921 195.725M601.921 195.725C601.578 199.513 604.164 201.242 610.83 204.023M601.921 195.725C602.86 191.43 605.066 190.264 609.886 188.85M601.921 195.725L620.664 198.718" stroke="#1B9F30" stroke-opacity="0.1" stroke-width="2"/>
<path d="M895.519 192.704L881.025 182.354L883.584 177.332L884.683 177.892L889.687 182.814L894.229 186.314L897.838 188.153L900.672 188.411L905.961 186.954L910.702 185.021L916.479 181.442L920.595 178.795L925.419 176.311L928.425 174.679L934.036 172.201L938.537 170.739L943.74 170.227L947.835 170.337L951.54 170.05L955.795 169.846L961.767 171.703L964.761 171.647L968.533 172.778L972.703 173.519L977.567 175.998L980.718 176.022L981.805 178.157L984.159 179.356L988.71 181.675L993.575 184.154L999.292 188.451L1003.76 191.714L1005.23 194.246L1006.79 197.409L1008.82 199.63L1013.51 203.998L1017.5 207.809L1020.62 211.771L1024.93 214.955L1028.28 220.021L1030.46 222.716L1029.66 224.286L1030.83 225.87L1033.66 227.309L1036.7 230.641L1039.19 235.465L1043.41 239.593L1048.08 246.324L1050.89 250.52L1052.74 255.418L1055.36 262.684L1056.9 268.604L1057.11 270.89L1056.37 275.453L1055.57 277.022C1054.52 277.408 1052.25 278.336 1051.62 278.962C1050.82 279.743 1049.32 280.756 1048.29 281.221C1047.47 281.592 1045.95 282.201 1045.29 282.458C1043.52 283.206 1039.74 284.811 1038.73 285.244C1037.72 285.678 1035.1 286.556 1033.91 286.94L1029.25 288.717L1024.77 288.21L1021.37 289.051L1018.06 289.341L1015.22 289.871L1009.62 291.167L1005.84 291.217L1001.35 290.711L993.395 290.808L988.275 290.769L983.458 292.465L979.679 292.121L976.369 292.411L972.984 292.071L969.052 291.253L964.88 290.906L960.704 290.953L957.32 290.613L954.72 290.672L952.502 292.309L950.776 291.429L946.837 291.4L941.502 288.681L933.027 284.363L930.664 284.345L928.31 283.146L922.669 279.085L920.487 275.997L919.09 273.308L915.951 271.709L915.016 270.441L913.091 264.519L911.152 260.566L908.902 256.059C908.202 254.845 906.709 252.293 906.335 251.786C905.961 251.279 904.675 249.095 904.079 248.066C903.588 246.96 902.545 244.636 902.296 244.193C902.048 243.75 901.163 241.375 900.751 240.243L899.351 237.948L898.359 233.687L897.136 228.715L896.062 225.004L895.707 219.882L895.269 215.31L895.542 210.507L895.246 207.984L895.758 202.71L896.176 199.562L896.194 197.199L895.519 192.704Z" stroke="#1B9F30" stroke-opacity="0.1" stroke-width="4"/>
<path d="M987.19 184.657C952.743 177.686 933.606 179.864 899.691 193.051L901.261 193.851M901.261 193.851C898.655 203.274 897.956 211.077 898.614 231.247M901.261 193.851L912.767 203.469M912.767 203.469C916.295 253.738 928.917 269.553 959.86 287.954M912.767 203.469L913.759 203.461M1004.46 202.747C971.881 192.685 953.562 187.251 913.759 203.461M913.759 203.461L933.541 216.624M933.541 216.624C940.18 210.8 943.913 207.947 950.702 207.774M933.541 216.624L936.837 218.303M936.837 218.303C934.53 229.193 935.099 235.511 939.138 247.151M936.837 218.303L942.48 221.97M942.48 221.97C955.824 209.018 963.892 207.526 978.513 207.119M942.48 221.97L946.404 223.969M946.404 223.969C948.849 270.499 966.787 271.458 988.527 288.723M946.404 223.969L958.494 229.338M958.494 229.338C974.701 204.729 993.517 213.765 1023.77 221.878M958.494 229.338L975.286 237.894M975.286 237.894C984.649 274.237 997.822 273.538 1016.6 284.84M975.286 237.894L987.624 241.611M987.624 241.611C1013.39 224.6 1024.26 234.72 1044.77 246.614M987.624 241.611L1006.85 251.603M1006.85 251.603C1004.48 260.307 1005.13 264.48 1008.83 270.996M1006.85 251.603L1022.63 258.655M1022.63 258.655C1020.89 266.58 1022.89 271.503 1032.3 281.178M1022.63 258.655C1031.13 252.457 1036.41 251.805 1046.38 253.558M1022.63 258.655L1046.79 270.969" stroke="#1B9F30" stroke-opacity="0.1" stroke-width="2"/>
</svg>
