<svg width="50" height="50" viewBox="0 0 50 50" fill="none" xmlns="http://www.w3.org/2000/svg">
<circle cx="25" cy="25" r="23.5" stroke="#1B9F30" stroke-width="3"/>
<path d="M25.4 36.1397L24.9489 35.2472L24.9489 35.2472L25.4 36.1397ZM24.5994 36.1397L25.0504 35.2472L25.0504 35.2472L24.5994 36.1397ZM33.9163 23.5837C33.9163 26.8636 32.1985 29.5271 30.1527 31.5362C28.1093 33.5428 25.832 34.8009 24.9489 35.2472L25.851 37.0322C26.8219 36.5416 29.3027 35.174 31.5541 32.9631C33.803 30.7546 35.9163 27.6086 35.9163 23.5837H33.9163ZM24.9997 14.667C29.9242 14.667 33.9163 18.6591 33.9163 23.5837H35.9163C35.9163 17.5546 31.0288 12.667 24.9997 12.667V14.667ZM16.083 23.5837C16.083 18.6591 20.0751 14.667 24.9997 14.667V12.667C18.9706 12.667 14.083 17.5545 14.083 23.5837H16.083ZM25.0504 35.2472C24.1673 34.8009 21.89 33.5428 19.8466 31.5362C17.8008 29.5271 16.083 26.8636 16.083 23.5837H14.083C14.083 27.6086 16.1964 30.7546 18.4453 32.9631C20.6966 35.174 23.1775 36.5416 24.1483 37.0322L25.0504 35.2472ZM24.9489 35.2472C24.9605 35.2414 24.9783 35.2361 24.9997 35.2361C25.0211 35.2361 25.0388 35.2414 25.0504 35.2472L24.1483 37.0322C24.6862 37.304 25.3132 37.304 25.851 37.0322L24.9489 35.2472ZM28.2497 23.5837C28.2497 25.3786 26.7946 26.8337 24.9997 26.8337V28.8337C27.8992 28.8337 30.2497 26.4832 30.2497 23.5837H28.2497ZM24.9997 20.3337C26.7946 20.3337 28.2497 21.7887 28.2497 23.5837H30.2497C30.2497 20.6842 27.8992 18.3337 24.9997 18.3337V20.3337ZM21.7497 23.5837C21.7497 21.7887 23.2047 20.3337 24.9997 20.3337V18.3337C22.1002 18.3337 19.7497 20.6842 19.7497 23.5837H21.7497ZM24.9997 26.8337C23.2047 26.8337 21.7497 25.3786 21.7497 23.5837H19.7497C19.7497 26.4832 22.1002 28.8337 24.9997 28.8337V26.8337Z" fill="#1B9F30"/>
</svg>
