<svg width="50" height="50" viewBox="0 0 50 50" fill="none" xmlns="http://www.w3.org/2000/svg">
<circle cx="25" cy="25" r="23.5" stroke="#1B9F30" stroke-width="3"/>
<path d="M32.4444 13H34.502C35.7134 13 36.319 13 36.7834 13.232C37.2095 13.4449 37.5551 13.7905 37.768 14.2166C38 14.681 38 15.2866 38 16.498V19M32.4444 37H34.502C35.7134 37 36.319 37 36.7834 36.768C37.2095 36.5551 37.5551 36.2095 37.768 35.7834C38 35.319 38 34.7134 38 33.502V31M18.5556 13H16.498C15.2866 13 14.681 13 14.2166 13.232C13.7905 13.4449 13.4449 13.7905 13.232 14.2166C13 14.681 13 15.2866 13 16.498V19M18.5556 37H16.498C15.2866 37 14.681 37 14.2166 36.768C13.7905 36.5551 13.4449 36.2095 13.232 35.7834C13 35.319 13 34.7134 13 33.502V31" stroke="#1B9F30" stroke-width="2" stroke-linecap="round"/>
<path d="M18.9576 31.0741C19.5947 30.1654 20.5271 29.3888 21.6794 28.8409C22.8316 28.2931 24.15 28 25.5 28C26.85 28 28.1684 28.2931 29.3206 28.8409C30.4729 29.3888 31.4053 30.1654 32.0424 31.074" stroke="#1B9F30" stroke-width="2" stroke-linecap="round"/>
<ellipse cx="25.5" cy="20" rx="4.5" ry="4" stroke="#1B9F30" stroke-width="2" stroke-linecap="round"/>
</svg>
