<svg width="192" height="584" viewBox="0 0 192 584" fill="none" xmlns="http://www.w3.org/2000/svg">
<path d="M85.4051 2H96H106.595L118.367 14.8889L111.304 30.3556L127.785 48.4L130.139 61.2889L120.722 71.6L130.139 76.7556V89.6444L120.722 99.9556L132.494 112.844L160.747 128.311L156.038 146.356L127.785 215.956L137.203 226.267V239.156L130.139 246.889V268.8L160.747 285.556V303.6H130.139V401.556L139.557 435.067L156.038 453.111L158.392 484.044L189 517.556L184.291 543.333L170.165 551.067L179.582 563.956V582H14.7721V563.956L24.1899 551.067L7.70886 543.333L3 517.556L33.6076 484.044L35.962 453.111L52.443 435.067L61.8608 401.556V303.6H31.2532V285.556L61.8608 268.8V246.889L54.7975 239.156V226.267L64.2152 215.956L35.962 146.356L31.2532 128.311L59.5063 112.844L71.2785 99.9556L61.8608 89.6444V76.7556L71.2785 71.6L61.8608 61.2889L64.2152 48.4L80.6962 30.3556L73.6329 14.8889L85.4051 2Z" stroke="#8F5454" stroke-opacity="0.15" stroke-width="4" stroke-linecap="round"/>
</svg>
