<?xml version="1.0" standalone="no"?>
<!DOCTYPE svg PUBLIC "-//W3C//DTD SVG 20010904//EN"
 "http://www.w3.org/TR/2001/REC-SVG-20010904/DTD/svg10.dtd">
<svg version="1.0" xmlns="http://www.w3.org/2000/svg"
 width="169.000000pt" height="169.000000pt" viewBox="0 0 169.000000 169.000000"
 preserveAspectRatio="xMidYMid meet">
<metadata>
Created by potrace 1.14, written by Peter Selinger 2001-2017
</metadata>
<g transform="translate(0.000000,169.000000) scale(0.100000,-0.100000)"
fill="#000000" stroke="none">
<path d="M40 1445 l0 -245 805 0 805 0 0 245 0 245 -805 0 -805 0 0 -245z
m1005 -5 c0 -13 -30 -15 -202 -18 -199 -2 -203 -2 -203 18 0 20 4 20 203 18
172 -3 202 -5 202 -18z"/>
<path d="M40 935 l0 -245 395 0 395 0 0 245 0 245 -395 0 -395 0 0 -245z m520
-5 c0 -19 -7 -20 -120 -20 -113 0 -120 1 -120 20 0 19 7 20 120 20 113 0 120
-1 120 -20z"/>
<path d="M860 935 l0 -245 395 0 395 0 0 245 0 245 -395 0 -395 0 0 -245z
m520 -5 c0 -19 -7 -20 -120 -20 -113 0 -120 1 -120 20 0 19 7 20 120 20 113 0
120 -1 120 -20z"/>
<path d="M40 425 c0 -238 1 -245 20 -245 19 0 20 -7 20 -90 l0 -90 50 0 50 0
0 85 0 85 665 0 665 0 0 -85 0 -85 50 0 50 0 0 90 c0 83 1 90 20 90 19 0 20 7
20 245 l0 245 -805 0 -805 0 0 -245z m160 105 c0 -38 -2 -40 -30 -40 -28 0
-30 2 -30 40 0 38 2 40 30 40 28 0 30 -2 30 -40z m80 0 c0 -38 -2 -40 -30 -40
-28 0 -30 2 -30 40 0 38 2 40 30 40 28 0 30 -2 30 -40z m80 0 c0 -38 -2 -40
-30 -40 -28 0 -30 2 -30 40 0 38 2 40 30 40 28 0 30 -2 30 -40z m80 0 c0 -38
-2 -40 -30 -40 -28 0 -30 2 -30 40 0 38 2 40 30 40 28 0 30 -2 30 -40z m80 0
c0 -38 -2 -40 -30 -40 -28 0 -30 2 -30 40 0 38 2 40 30 40 28 0 30 -2 30 -40z
m80 0 c0 -38 -2 -40 -30 -40 -28 0 -30 2 -30 40 0 38 2 40 30 40 28 0 30 -2
30 -40z m80 0 c0 -38 -2 -40 -30 -40 -28 0 -30 2 -30 40 0 38 2 40 30 40 28 0
30 -2 30 -40z m80 0 c0 -38 -2 -40 -30 -40 -28 0 -30 2 -30 40 0 38 2 40 30
40 28 0 30 -2 30 -40z m80 0 c0 -39 -1 -40 -35 -40 -34 0 -35 1 -35 40 0 39 1
40 35 40 34 0 35 -1 35 -40z m70 0 c0 -38 -2 -40 -30 -40 -28 0 -30 2 -30 40
0 38 2 40 30 40 28 0 30 -2 30 -40z m80 0 c0 -38 -2 -40 -30 -40 -28 0 -30 2
-30 40 0 38 2 40 30 40 28 0 30 -2 30 -40z m80 0 c0 -38 -2 -40 -30 -40 -28 0
-30 2 -30 40 0 38 2 40 30 40 28 0 30 -2 30 -40z m80 0 c0 -38 -2 -40 -30 -40
-28 0 -30 2 -30 40 0 38 2 40 30 40 28 0 30 -2 30 -40z m80 0 c0 -38 -2 -40
-30 -40 -28 0 -30 2 -30 40 0 38 2 40 30 40 28 0 30 -2 30 -40z m80 0 c0 -38
-2 -40 -30 -40 -28 0 -30 2 -30 40 0 38 2 40 30 40 28 0 30 -2 30 -40z m80 0
c0 -38 -2 -40 -30 -40 -28 0 -30 2 -30 40 0 38 2 40 30 40 28 0 30 -2 30 -40z
m80 0 c0 -38 -2 -40 -30 -40 -28 0 -30 2 -30 40 0 38 2 40 30 40 28 0 30 -2
30 -40z m80 0 c0 -38 -2 -40 -30 -40 -28 0 -30 2 -30 40 0 38 2 40 30 40 28 0
30 -2 30 -40z m-1350 -105 c0 -43 -1 -45 -30 -45 -29 0 -30 2 -30 45 0 43 1
45 30 45 29 0 30 -2 30 -45z m80 0 c0 -43 -1 -45 -30 -45 -29 0 -30 2 -30 45
0 43 1 45 30 45 29 0 30 -2 30 -45z m80 0 c0 -43 -1 -45 -30 -45 -29 0 -30 2
-30 45 0 43 1 45 30 45 29 0 30 -2 30 -45z m80 0 c0 -43 -1 -45 -30 -45 -29 0
-30 2 -30 45 0 43 1 45 30 45 29 0 30 -2 30 -45z m80 0 c0 -43 -1 -45 -30 -45
-29 0 -30 2 -30 45 0 43 1 45 30 45 29 0 30 -2 30 -45z m80 0 c0 -43 -1 -45
-30 -45 -29 0 -30 2 -30 45 0 43 1 45 30 45 29 0 30 -2 30 -45z m80 0 c0 -43
-1 -45 -30 -45 -29 0 -30 2 -30 45 0 43 1 45 30 45 29 0 30 -2 30 -45z m80 0
c0 -43 -1 -45 -30 -45 -29 0 -30 2 -30 45 0 43 1 45 30 45 29 0 30 -2 30 -45z
m80 0 c0 -45 0 -45 -35 -45 -35 0 -35 0 -35 45 0 45 0 45 35 45 35 0 35 0 35
-45z m70 0 c0 -43 -1 -45 -30 -45 -29 0 -30 2 -30 45 0 43 1 45 30 45 29 0 30
-2 30 -45z m80 0 c0 -43 -1 -45 -30 -45 -29 0 -30 2 -30 45 0 43 1 45 30 45
29 0 30 -2 30 -45z m80 0 c0 -43 -1 -45 -30 -45 -29 0 -30 2 -30 45 0 43 1 45
30 45 29 0 30 -2 30 -45z m80 0 c0 -43 -1 -45 -30 -45 -29 0 -30 2 -30 45 0
43 1 45 30 45 29 0 30 -2 30 -45z m80 0 c0 -43 -1 -45 -30 -45 -29 0 -30 2
-30 45 0 43 1 45 30 45 29 0 30 -2 30 -45z m80 0 c0 -43 -1 -45 -30 -45 -29 0
-30 2 -30 45 0 43 1 45 30 45 29 0 30 -2 30 -45z m80 0 c0 -43 -1 -45 -30 -45
-29 0 -30 2 -30 45 0 43 1 45 30 45 29 0 30 -2 30 -45z m80 0 c0 -43 -1 -45
-30 -45 -29 0 -30 2 -30 45 0 43 1 45 30 45 29 0 30 -2 30 -45z m80 0 c0 -43
-1 -45 -30 -45 -29 0 -30 2 -30 45 0 43 1 45 30 45 29 0 30 -2 30 -45z m-1350
-105 c0 -38 -2 -40 -30 -40 -28 0 -30 2 -30 40 0 38 2 40 30 40 28 0 30 -2 30
-40z m78 3 c-3 -33 -7 -38 -30 -41 -27 -3 -28 -1 -28 37 0 39 1 41 31 41 29 0
30 -2 27 -37z m80 0 c-3 -33 -7 -38 -30 -41 -27 -3 -28 -1 -28 37 0 39 1 41
31 41 29 0 30 -2 27 -37z m80 0 c-3 -33 -7 -38 -30 -41 -27 -3 -28 -1 -28 37
0 39 1 41 31 41 29 0 30 -2 27 -37z m80 0 c-3 -33 -7 -38 -30 -41 -27 -3 -28
-1 -28 37 0 39 1 41 31 41 29 0 30 -2 27 -37z m80 0 c-3 -33 -7 -38 -30 -41
-27 -3 -28 -1 -28 37 0 39 1 41 31 41 29 0 30 -2 27 -37z m80 0 c-3 -33 -7
-38 -30 -41 -27 -3 -28 -1 -28 37 0 39 1 41 31 41 29 0 30 -2 27 -37z m80 0
c-3 -33 -7 -38 -30 -41 -27 -3 -28 -1 -28 37 0 39 1 41 31 41 29 0 30 -2 27
-37z m80 0 c-3 -35 -6 -38 -33 -38 -27 0 -30 3 -33 38 -3 37 -3 37 33 37 36 0
36 0 33 -37z m72 -4 c0 -38 -1 -40 -27 -37 -24 3 -28 8 -31 41 -3 35 -2 37 27
37 30 0 31 -2 31 -41z m80 0 c0 -38 -1 -40 -27 -37 -24 3 -28 8 -31 41 -3 35
-2 37 27 37 30 0 31 -2 31 -41z m80 0 c0 -38 -1 -40 -27 -37 -24 3 -28 8 -31
41 -3 35 -2 37 27 37 30 0 31 -2 31 -41z m80 0 c0 -38 -1 -40 -27 -37 -24 3
-28 8 -31 41 -3 35 -2 37 27 37 30 0 31 -2 31 -41z m80 0 c0 -38 -1 -40 -27
-37 -24 3 -28 8 -31 41 -3 35 -2 37 27 37 30 0 31 -2 31 -41z m80 0 c0 -38 -1
-40 -27 -37 -24 3 -28 8 -31 41 -3 35 -2 37 27 37 30 0 31 -2 31 -41z m80 0
c0 -38 -1 -40 -27 -37 -24 3 -28 8 -31 41 -3 35 -2 37 27 37 30 0 31 -2 31
-41z m80 1 c0 -38 -2 -40 -30 -40 -28 0 -30 2 -30 40 0 38 2 40 30 40 28 0 30
-2 30 -40z m80 0 c0 -38 -2 -40 -30 -40 -28 0 -30 2 -30 40 0 38 2 40 30 40
28 0 30 -2 30 -40z"/>
</g>
</svg>
